<svg xmlns="http://www.w3.org/2000/svg" width="140" height="140" viewBox="0 0 140 140">
  <g id="グループ_4299" data-name="グループ 4299" transform="translate(-393 -1041)">
    <circle id="楕円形_41" data-name="楕円形 41" cx="70" cy="70" r="70" transform="translate(393 1041)" fill="#fff"/>
    <g id="time" transform="translate(425 1073)">
      <path id="パス_2219" data-name="パス 2219" d="M76,38A38,38,0,1,1,38,0,38,38,0,0,1,76,38Zm0,0" fill="#1e2369"/>
      <path id="パス_2221" data-name="パス 2221" d="M112.584,82.308A30.277,30.277,0,1,1,82.308,52.031,30.277,30.277,0,0,1,112.584,82.308Zm0,0" transform="translate(-44.308 -44.308)" fill="#f4f4f4"/>
      <path id="パス_2223" data-name="パス 2223" d="M244.294,128.392h-4.943V108.62a2.471,2.471,0,1,1,4.943,0Zm0,0" transform="translate(-203.823 -90.392)"/>
      <path id="パス_2224" data-name="パス 2224" d="M244.227,247.722l3.5-3.5,10.7,10.7a2.472,2.472,0,0,1-3.5,3.5Zm0,0" transform="translate(-207.974 -207.974)"/>
      <path id="パス_2225" data-name="パス 2225" d="M143.207,283.842a1.159,1.159,0,0,1-.819-1.978l12.693-12.693a1.158,1.158,0,1,1,1.638,1.639L144.026,283.5A1.154,1.154,0,0,1,143.207,283.842Zm0,0" transform="translate(-120.963 -228.927)" fill="#d82b1b"/>
      <g id="グループ_4294" data-name="グループ 4294" transform="translate(7.723 7.723)">
        <path id="パス_2226" data-name="パス 2226" d="M250.512,52.053v3.067a1.159,1.159,0,1,1-2.317,0V52.053c.384-.014.771-.022,1.159-.022S250.128,52.039,250.512,52.053Zm0,0" transform="translate(-219.077 -52.031)" fill="#717171"/>
        <path id="パス_2227" data-name="パス 2227" d="M150.431,79.794a1.138,1.138,0,0,1-.578.156,1.16,1.16,0,0,1-1.006-.579l-1.535-2.658q.978-.619,2.007-1.162l1.537,2.661A1.157,1.157,0,0,1,150.431,79.794Zm0,0" transform="translate(-133.169 -72.06)" fill="#717171"/>
        <path id="パス_2228" data-name="パス 2228" d="M79.794,150.431a1.16,1.16,0,0,1-1.582.425l-2.661-1.537q.544-1.029,1.162-2.007l2.659,1.535A1.158,1.158,0,0,1,79.794,150.431Zm0,0" transform="translate(-72.06 -133.169)" fill="#717171"/>
        <path id="パス_2229" data-name="パス 2229" d="M56.279,249.354a1.159,1.159,0,0,1-1.159,1.159H52.053c-.014-.384-.022-.771-.022-1.159s.008-.774.022-1.159h3.067A1.159,1.159,0,0,1,56.279,249.354Zm0,0" transform="translate(-52.031 -219.077)" fill="#717171"/>
        <path id="パス_2230" data-name="パス 2230" d="M79.371,341.93l-2.658,1.535q-.619-.978-1.162-2.006l2.661-1.537a1.159,1.159,0,0,1,1.159,2.008Zm0,0" transform="translate(-72.06 -297.056)" fill="#717171"/>
        <path id="パス_2231" data-name="パス 2231" d="M150.86,408.55l-1.537,2.661q-1.028-.544-2.006-1.162l1.535-2.659a1.159,1.159,0,0,1,2.008,1.159Zm0,0" transform="translate(-133.173 -354.149)" fill="#717171"/>
        <path id="パス_2232" data-name="パス 2232" d="M250.512,432.506v3.068c-.384.014-.771.022-1.159.022s-.774-.008-1.159-.022v-3.068a1.159,1.159,0,0,1,2.317,0Zm0,0" transform="translate(-219.077 -375.043)" fill="#717171"/>
        <path id="パス_2233" data-name="パス 2233" d="M343.466,410.053q-.978.619-2.006,1.162l-1.537-2.661a1.159,1.159,0,0,1,2.009-1.159Zm0,0" transform="translate(-297.056 -354.153)" fill="#717171"/>
        <path id="パス_2234" data-name="パス 2234" d="M411.208,341.458q-.544,1.029-1.162,2.006l-2.658-1.535a1.159,1.159,0,0,1,1.159-2.008Zm0,0" transform="translate(-354.146 -297.055)" fill="#717171"/>
        <path id="パス_2235" data-name="パス 2235" d="M435.6,249.354c0,.388-.008.774-.022,1.159h-3.068a1.159,1.159,0,1,1,0-2.317h3.068C435.588,248.58,435.6,248.966,435.6,249.354Zm0,0" transform="translate(-375.043 -219.077)" fill="#717171"/>
        <path id="パス_2236" data-name="パス 2236" d="M411.209,149.323l-2.661,1.537a1.159,1.159,0,0,1-1.159-2.008l2.658-1.535Q410.667,148.294,411.209,149.323Zm0,0" transform="translate(-354.147 -133.173)" fill="#717171"/>
        <path id="パス_2237" data-name="パス 2237" d="M343.464,76.713l-1.535,2.658a1.157,1.157,0,0,1-1.005.579,1.137,1.137,0,0,1-.578-.156,1.157,1.157,0,0,1-.425-1.582l1.537-2.661Q342.487,76.1,343.464,76.713Zm0,0" transform="translate(-297.055 -72.06)" fill="#717171"/>
      </g>
      <path id="パス_2238" data-name="パス 2238" d="M234.049,229.415a4.634,4.634,0,1,1-4.634-4.634A4.634,4.634,0,0,1,234.049,229.415Zm0,0" transform="translate(-191.415 -191.415)" fill="#1e2369"/>
    </g>
  </g>
</svg>
