<svg xmlns="http://www.w3.org/2000/svg" width="140" height="140" viewBox="0 0 140 140">
  <g id="グループ_4298" data-name="グループ 4298" transform="translate(-393 -1041)">
    <path id="パス_2240" data-name="パス 2240" d="M70,0A70,70,0,1,1,0,70,70,70,0,0,1,70,0Z" transform="translate(393 1041)" fill="#fff"/>
    <g id="surface1" transform="translate(428 1072)">
      <path id="パス_2200" data-name="パス 2200" d="M61.412,2.67A2.679,2.679,0,0,0,58.742,0H17.355V13.35a2.67,2.67,0,0,1-2.67,2.67H0V74.762a2.679,2.679,0,0,0,2.67,2.67H58.742a2.679,2.679,0,0,0,2.67-2.67ZM45.391,26.7ZM14.685,26.7ZM37.381,34.711ZM29.371,42.721ZM21.361,50.731Zm0,0" fill="#f4f4f4"/>
      <path id="パス_2201" data-name="パス 2201" d="M122.586,355.447l1.887-13.216,8.5,2.832,2.833,8.5Zm0,0" transform="translate(-102.129 -285.119)" fill="#717171"/>
      <path id="パス_2203" data-name="パス 2203" d="M303.609,153.674l3.776-3.776,11.328,11.328L314.938,165Zm0,0" transform="translate(-252.943 -124.883)" fill="#717171"/>
      <path id="パス_2204" data-name="パス 2204" d="M332.962,124.572a7.561,7.561,0,0,0-1.335.254,8,8,0,0,0-3.471,2.042l-1.882,1.9,11.321,11.321,1.882-1.883a8.01,8.01,0,0,0-6.515-13.631Zm0,0" transform="translate(-271.825 -103.745)" fill="#717171"/>
      <path id="パス_2205" data-name="パス 2205" d="M162.216,172.48l-28.33,28.329,7.562,3.773,16.986-16.992-16.986,16.992,1.7,3.409,2.075,4.138,27.46-27.459.855-.855-2.192-2.192Zm.121,11.206,1.889-1.888Zm0,0" transform="translate(-111.544 -143.697)" fill="#fee00a"/>
      <path id="パス_2206" data-name="パス 2206" d="M17.355,13.35V0L0,16.02H14.685A2.67,2.67,0,0,0,17.355,13.35Zm0,0" fill="#ea7a15"/>
      <path id="パス_2207" data-name="パス 2207" d="M193.939,266.238a1.335,1.335,0,0,1-.944-2.28l14.326-14.322a1.335,1.335,0,1,1,1.885,1.882l-14.324,14.329A1.335,1.335,0,0,1,193.939,266.238Zm0,0" transform="translate(-160.461 -207.596)" fill="#f1f2f2"/>
      <path id="パス_2208" data-name="パス 2208" d="M302.4,220.273a1.335,1.335,0,0,1-.944-2.279l1.888-1.888a1.335,1.335,0,0,1,1.888,1.888l-1.888,1.888A1.327,1.327,0,0,1,302.4,220.273Zm0,0" transform="translate(-250.824 -179.73)" fill="#f1f2f2"/>
      <path id="パス_2209" data-name="パス 2209" d="M77.371,202.67H49.335a1.335,1.335,0,1,1,0-2.67H77.371a1.335,1.335,0,0,1,0,2.67Zm0,0" transform="translate(-39.99 -166.624)" fill="#ea7a15"/>
      <path id="パス_2210" data-name="パス 2210" d="M69.361,250.67H49.335a1.335,1.335,0,1,1,0-2.67H69.361a1.335,1.335,0,1,1,0,2.67Zm0,0" transform="translate(-39.99 -206.614)" fill="#ea7a15"/>
      <path id="パス_2211" data-name="パス 2211" d="M61.35,298.67H49.335a1.335,1.335,0,1,1,0-2.67H61.35a1.335,1.335,0,1,1,0,2.67Zm0,0" transform="translate(-39.99 -246.604)" fill="#ea7a15"/>
      <path id="パス_2212" data-name="パス 2212" d="M138.7,154.67H113.335a1.335,1.335,0,1,1,0-2.67H138.7a1.335,1.335,0,1,1,0,2.67Zm0,0" transform="translate(-93.309 -126.634)" fill="#ea7a15"/>
      <path id="パス_2213" data-name="パス 2213" d="M54.675,154.67h-5.34a1.335,1.335,0,1,1,0-2.67h5.34a1.335,1.335,0,1,1,0,2.67Zm0,0" transform="translate(-39.99 -126.634)" fill="#ea7a15"/>
    </g>
  </g>
</svg>
