<svg xmlns="http://www.w3.org/2000/svg" width="140" height="140" viewBox="0 0 140 140">
  <g id="グループ_4300" data-name="グループ 4300" transform="translate(-393 -1041)">
    <circle id="楕円形_41" data-name="楕円形 41" cx="70" cy="70" r="70" transform="translate(393 1041)" fill="#fff"/>
    <g id="settings-3" transform="translate(420.478 1069)">
      <path id="パス_2214" data-name="パス 2214" d="M56.872,23.625a26.356,26.356,0,0,0-2.45-6.125l2.1-4.9-7.35-7.175-4.9,2.1a23.61,23.61,0,0,0-6.125-2.45L36.4,0H26.072L24.147,5.075a26.355,26.355,0,0,0-6.125,2.45l-4.9-2.1L5.947,12.6l2.1,4.9A23.61,23.61,0,0,0,5.6,23.625L.522,25.55V35.875L5.6,37.8a26.355,26.355,0,0,0,2.45,6.125l-2.1,4.9L13.3,56l4.9-2.1a23.61,23.61,0,0,0,6.125,2.45l1.925,5.075H36.4l1.925-5.075a26.356,26.356,0,0,0,6.125-2.45l4.9,2.1,7.35-7.175-2.1-4.9a23.61,23.61,0,0,0,2.45-6.125l5.075-1.925V25.55Zm-25.725,19.6a12.6,12.6,0,1,1,12.6-12.6A12.548,12.548,0,0,1,31.147,43.225Z" fill="#1fa6b2"/>
      <g id="グループ_4293" data-name="グループ 4293" transform="translate(12.334 11.812)">
        <path id="パス_2215" data-name="パス 2215" d="M126.192,125.67a12.464,12.464,0,0,1-17.675,0l-4.55,4.55a18.933,18.933,0,0,0,26.775-26.775l-4.55,4.55A12.463,12.463,0,0,1,126.192,125.67Z" transform="translate(-98.454 -97.932)" fill="#1e2369"/>
        <path id="パス_2216" data-name="パス 2216" d="M76.565,76.043a19.012,19.012,0,0,0,0,26.775l4.55-4.55A12.5,12.5,0,0,1,98.79,80.593l4.55-4.55A19.012,19.012,0,0,0,76.565,76.043Z" transform="translate(-71.053 -70.531)" fill="#1e2369"/>
      </g>
      <path id="パス_2217" data-name="パス 2217" d="M225.128,351.857a8.494,8.494,0,0,0,0-2.975l1.75-1.75-1.75-4.375h-2.45a23.749,23.749,0,0,0-2.1-2.1v-2.45l-4.375-1.75-1.75,1.75a8.5,8.5,0,0,0-2.975,0l-1.75-1.75-4.375,1.75v2.45a23.753,23.753,0,0,0-2.1,2.1H200.8l-1.75,4.375,1.75,1.75a8.494,8.494,0,0,0,0,2.975l-1.75,1.75,1.75,4.375h2.45a23.753,23.753,0,0,0,2.1,2.1v2.45l4.375,1.75,1.75-1.75a8.494,8.494,0,0,0,2.975,0l1.75,1.75,4.375-1.75v-2.45a23.761,23.761,0,0,0,2.1-2.1h2.45l1.75-4.375Zm-14,3.675a5.654,5.654,0,1,1,7.35-3.15A5.6,5.6,0,0,1,211.128,355.532Z" transform="translate(-165.281 -280.107)" fill="#228bc5"/>
      <path id="パス_2218" data-name="パス 2218" d="M362.009,214.976a8.492,8.492,0,0,0,0-2.975l1.75-1.75-1.75-4.375h-2.45a23.755,23.755,0,0,0-2.1-2.1v-2.45l-4.375-1.75-1.75,1.75a8.494,8.494,0,0,0-2.975,0l-1.75-1.75-4.375,1.75v2.45a23.759,23.759,0,0,0-2.1,2.1h-2.45l-1.75,4.375,1.75,1.75a8.494,8.494,0,0,0,0,2.975l-1.75,1.75,1.75,4.375h2.45a23.764,23.764,0,0,0,2.1,2.1v2.45l4.375,1.75,1.75-1.75a8.494,8.494,0,0,0,2.975,0l1.75,1.75,4.375-1.75V223.2a23.76,23.76,0,0,0,2.1-2.1h2.45l1.75-4.375Zm-14.175,3.85a5.654,5.654,0,1,1,7.35-3.15A5.481,5.481,0,0,1,347.834,218.826Z" transform="translate(-279.237 -166.151)" fill="#d82b1b"/>
    </g>
  </g>
</svg>
