<svg xmlns="http://www.w3.org/2000/svg" xmlns:xlink="http://www.w3.org/1999/xlink" width="783.656" height="739.276" viewBox="0 0 783.656 739.276">
  <defs>
    <clipPath id="clip-path">
      <path id="パス_1929" data-name="パス 1929" d="M22.43,120.385c-46.283,53.288-12.351,97.476,24.606,106.588,52.36,12.906,69.512-11.155,83.142,72.192,4.625,28.3,20.624,55.8,46.777,69.056,18.811,9.529,41.919,10.772,61.151,2.125,10.7-4.811,19.906-12.37,30.083-18.206s22.216-9.988,33.573-7.047c10.937,2.833,19.27,11.744,25.364,21.259,14.654,22.884,19.486,51.177,36.25,72.8,14.13,18.23,37.111,33.381,60.369,35.547,30.444,2.833,58.658-15.083,81.875-32.712,27.227-20.674,50.051-46.918,67.832-76.057,22.779-37.327,37.41-79.293,45.644-122.239,7.331-38.234,9.657-77.808,2.538-116.081C610.376,67.083,567.422-10.567,494.957,1.192c-87.245,14.156-72.5,106.342-126.544,49.443-32.339-34.046-105.522-67.944-151.4,19.343S89.086,43.643,22.43,120.385Z" transform="translate(0)" fill="none"/>
    </clipPath>
    <linearGradient id="linear-gradient" x1="0.629" y1="0.043" x2="0.486" y2="0.361" gradientUnits="objectBoundingBox">
      <stop offset="0" stop-color="#228bc5"/>
      <stop offset="1" stop-color="#1e2369"/>
    </linearGradient>
    <linearGradient id="linear-gradient-2" x1="0.648" y1="-0.002" x2="0.465" y2="0.357" gradientUnits="objectBoundingBox">
      <stop offset="0" stop-color="#1fa6b2"/>
      <stop offset="1" stop-color="#2a8b4b"/>
    </linearGradient>
  </defs>
  <g id="グループ_4204" data-name="グループ 4204" transform="matrix(-0.839, 0.545, -0.545, -0.839, 783.655, 398.368)">
    <g id="グループ_3143" data-name="グループ 3143" transform="translate(0 0)" clip-path="url(#clip-path)">
      <path id="交差_13" data-name="交差 13" d="M-2179.77-1721.077c-10.138-42.3,13.263-74.5-41.49-66.164-43.122,6.564-116.133-10.246-100.086-100.431a77.352,77.352,0,0,0,1.12-21.24l142.676-219.7c17.928,4.424,34.113,16.24,42.768,32.542,5.112,9.625,7.56,20.415,11.706,30.493s10.612,19.985,20.622,24.3c9.64,4.15,20.831,2.358,30.721-1.155,23.788-8.446,43.449-26.456,68.072-32.779,20.751-5.331,46.243-3.358,64.544,8.3,23.954,15.26,34.457,44.478,41.451,70.637,7.887,29.5,9.856,60.46,6.84,90.809l-156.639,241.2a147.09,147.09,0,0,1-30.754,9.139Z" transform="translate(2463.606 2234.934)" stroke="rgba(0,0,0,0)" stroke-width="1" fill="url(#linear-gradient)"/>
      <path id="交差_12" data-name="交差 12" d="M-2366.976-1720.362l129.944-200.1a77.622,77.622,0,0,1,38.294,10.471c17.228,10.213,30,28.1,32.882,47.921,1.6,11.026.235,22.258.746,33.387s3.323,22.9,11.47,30.5c7.846,7.32,19.236,9.454,29.966,9.485,11.629.033,23.122-2.09,34.608-4.213,14-2.589,28-5.179,42.216-3.856,21.812,2.029,45.67,12.72,59.264,30.253,17.792,22.951,17.822,54.7,15.53,82.288a241.793,241.793,0,0,1-3.589,25.925l-87.733,135.1Z" transform="translate(2466.221 2114.344)" stroke="rgba(0,0,0,0)" stroke-width="1" fill="url(#linear-gradient-2)"/>
    </g>
  </g>
</svg>
