<svg xmlns="http://www.w3.org/2000/svg" xmlns:xlink="http://www.w3.org/1999/xlink" width="545.271" height="524.786" viewBox="0 0 545.271 524.786">
  <defs>
    <clipPath id="clip-path">
      <path id="パス_1929" data-name="パス 1929" d="M15.607,83.764c-32.2,37.078-8.594,67.825,17.121,74.164,36.432,8.98,48.367-7.762,57.851,50.231,3.218,19.689,14.35,38.829,32.548,48.049,13.089,6.63,29.167,7.495,42.549,1.478,7.447-3.348,13.85-8.607,20.932-12.668s15.458-6.949,23.36-4.9c7.61,1.972,13.408,8.171,17.648,14.792,10.2,15.923,13.559,35.609,25.223,50.658,9.831,12.685,25.822,23.227,42.005,24.734,21.183,1.972,40.815-10.495,56.969-22.761a191.569,191.569,0,0,0,47.2-52.921c15.849-25.973,26.03-55.173,31.759-85.054,5.1-26.6,6.719-54.139,1.766-80.77C424.7,46.677,394.815-7.352,344.394.829c-60.705,9.85-50.447,73.993-88.05,34.4C233.842,11.543,182.921-12.044,151,48.692S61.987,30.367,15.607,83.764Z" transform="translate(0 0)" fill="none"/>
    </clipPath>
    <linearGradient id="linear-gradient" x1="0.629" y1="0.043" x2="0.486" y2="0.361" gradientUnits="objectBoundingBox">
      <stop offset="0" stop-color="#228bc5"/>
      <stop offset="1" stop-color="#1e2369"/>
    </linearGradient>
    <linearGradient id="linear-gradient-2" x1="0.648" y1="-0.002" x2="0.465" y2="0.357" gradientUnits="objectBoundingBox">
      <stop offset="0" stop-color="#1fa6b2"/>
      <stop offset="1" stop-color="#2a8b4b"/>
    </linearGradient>
  </defs>
  <g id="グループ_4309" data-name="グループ 4309" transform="translate(167.233 -724.992)">
    <g id="グループ_3818" data-name="グループ 3818" transform="translate(0 269)">
      <path id="交差_1" data-name="交差 1" d="M0,0A94.022,94.022,0,0,1,38.113,41.433C55.687,79.883,65.792,66.8,88.441,53.721c14.507-8.38,34.16-16.759,64.221-11.6,63.951,10.984,77.553,88.229,69.576,142.058-5.043,34.037-18.354,66.447-35.462,96.3-19.216,33.535-43.5,64.409-73.263,89.069C90.28,388.8,63.665,404.183,34.967,413.646,23.924,417.287,12.012,420.684,0,422.294Z" transform="translate(-0.085 557.913)" fill="#f4f4f4" stroke="rgba(0,0,0,0)" stroke-width="1"/>
      <g id="グループ_3814" data-name="グループ 3814" transform="matrix(-0.839, 0.545, -0.545, -0.839, 378.039, 733.179)">
        <g id="グループ_3143" data-name="グループ 3143" transform="translate(0 0)" clip-path="url(#clip-path)">
          <path id="交差_4" data-name="交差 4" d="M-1338.017,4286.049c-30.005,4.567-80.807-7.127-69.641-69.879s-75.755-37.251-79.375-102.853c-2.513-45.552,32.325-54.667,54.807-44.672,31.849,14.16,31.071,33.245,71.062-3.912,13.578-12.615,32.647-20.319,51.252-16.721,13.382,2.589,25.674,11.113,32.066,23.151,3.557,6.7,5.26,14.2,8.144,21.217s7.384,13.906,14.349,16.905c6.708,2.887,14.495,1.641,21.376-.8,16.553-5.876,30.232-18.409,47.365-22.808,14.44-3.709,32.176-2.337,44.911,5.776a45.725,45.725,0,0,1,6.583,5.1L-1300.745,4351.6C-1325.577,4313.448-1291.825,4279.017-1338.017,4286.049Z" transform="translate(1506.643 -3974.543)" stroke="rgba(0,0,0,0)" stroke-width="1" fill="url(#linear-gradient)"/>
          <path id="交差_3" data-name="交差 3" d="M-1413.446,4450.653c5.637-15.829,9.116-25.283-18.06-30.594-30.456-5.954-75.319-34.735-42.925-91.284s-60.066-61.984-40.922-126.374c13.294-44.71,49.97-41.468,68.162-24.091,25.77,24.615,18.438,42.716,69.745,20.747,17.42-7.458,38.431-8.3,55.1,1.586,11.987,7.107,20.876,19.552,22.879,33.343,1.112,7.673.163,15.488.52,23.231s2.311,15.932,7.98,21.221c5.459,5.092,13.385,6.578,20.851,6.6,8.091.023,16.088-1.455,24.079-2.932,9.745-1.8,19.483-3.6,29.376-2.683a64.911,64.911,0,0,1,13.635,2.807l-139.348,214.577Z" transform="translate(1508.463 -4058.45)" stroke="rgba(0,0,0,0)" stroke-width="1" fill="url(#linear-gradient-2)"/>
        </g>
      </g>
    </g>
  </g>
</svg>
