<svg id="グループ_3827" data-name="グループ 3827" xmlns="http://www.w3.org/2000/svg" xmlns:xlink="http://www.w3.org/1999/xlink" width="781.968" height="593.409" viewBox="0 0 781.968 593.409">
  <defs>
    <clipPath id="clip-path">
      <path id="パス_1929" data-name="パス 1929" d="M997.419,584.673c57.82-66.572,15.43-121.776-30.74-133.158-65.412-16.123-86.841,13.936-103.868-90.188-5.778-35.351-25.765-69.715-58.438-86.27-23.5-11.9-52.368-13.457-76.4-2.654-13.37,6.011-24.868,15.453-37.582,22.744s-27.754,12.477-41.942,8.8c-13.663-3.54-24.074-14.671-31.687-26.559-18.307-28.588-24.344-63.934-45.287-90.954-17.652-22.775-46.362-41.7-75.418-44.408-38.033-3.54-73.281,18.843-102.285,40.866-34.014,25.828-62.527,58.614-84.741,95.017-28.457,46.633-46.736,99.06-57.022,152.711-9.158,47.765-12.064,97.2-3.171,145.018,14.063,75.62,67.726,172.627,158.254,157.937,108.993-17.685,90.576-132.851,158.09-61.769,40.4,42.534,131.827,84.882,189.147-24.165S914.146,680.545,997.419,584.673Z" transform="translate(-243.472 -141.658)" fill="none"/>
    </clipPath>
    <linearGradient id="linear-gradient" x1="0.371" y1="0.957" x2="0.514" y2="0.639" gradientUnits="objectBoundingBox">
      <stop offset="0" stop-color="#fee00a"/>
      <stop offset="1" stop-color="#ce286f"/>
    </linearGradient>
    <linearGradient id="linear-gradient-2" x1="0.352" y1="1.002" x2="0.535" y2="0.643" gradientUnits="objectBoundingBox">
      <stop offset="0" stop-color="#ea7a15"/>
      <stop offset="1" stop-color="#d82b1b"/>
    </linearGradient>
  </defs>
  <g id="グループ_3143" data-name="グループ 3143" clip-path="url(#clip-path)">
    <path id="交差_10" data-name="交差 10" d="M-1085.009,2422.761c-24.027-4.649-46.1-19.952-57.574-41.567-6.386-12.024-9.445-25.5-14.624-38.094s-13.257-24.966-25.762-30.352c-12.043-5.185-26.024-2.947-38.379,1.442-20.349,7.225-38.281,20.052-57.441,29.958V1925.483h194.761c6.163,46.357-13.3,79.453,49.48,69.9,53.871-8.2,145.084,12.8,125.036,125.466C-926,2213.5-823.377,2199-782.789,2256.429v111.877c-20.426,26.22-56.248,29.131-82.611,17.41-57.183-25.424-55.786-59.687-127.589,7.023-20.3,18.863-47.451,31.612-75.257,31.614A88.142,88.142,0,0,1-1085.009,2422.761Z" transform="translate(1513.756 -1961.263)" stroke="rgba(0,0,0,0)" stroke-width="1" fill="url(#linear-gradient)"/>
    <path id="交差_9" data-name="交差 9" d="M-940.385,2485.277c-46.268-44.194-33.1-76.693-125.223-37.251-31.276,13.391-69,14.9-98.926-2.847-21.523-12.759-37.483-35.1-41.08-59.866-2-13.774-.293-27.806-.932-41.709s-4.151-28.6-14.328-38.1c-9.8-9.145-24.032-11.811-37.437-11.85-14.528-.043-28.885,2.61-43.234,5.263-17.5,3.235-34.979,6.469-52.741,4.818a116.21,116.21,0,0,1-23.086-4.6v-227.84h459.234c14.872,9.435,28.172,21.977,36.765,37.78v85.768a185.843,185.843,0,0,1-10.1,20.286c-23.071,40.274-10.872,66.106,10.1,89.835v201.332a64.987,64.987,0,0,1-7.023.378C-907.856,2506.671-926.932,2498.126-940.385,2485.277Z" transform="translate(1612.341 -2107.071)" stroke="rgba(0,0,0,0)" stroke-width="1" fill="url(#linear-gradient-2)"/>
  </g>
</svg>
