<svg xmlns="http://www.w3.org/2000/svg" xmlns:xlink="http://www.w3.org/1999/xlink" width="783.656" height="739.276" viewBox="0 0 783.656 739.276">
  <defs>
    <clipPath id="clip-path">
      <path id="パス_1929" data-name="パス 1929" d="M22.43,120.385c-46.283,53.288-12.351,97.476,24.606,106.588,52.36,12.906,69.512-11.155,83.142,72.192,4.625,28.3,20.624,55.8,46.777,69.056,18.811,9.529,41.919,10.772,61.151,2.125,10.7-4.811,19.906-12.37,30.083-18.206s22.216-9.988,33.573-7.047c10.937,2.833,19.27,11.744,25.364,21.259,14.654,22.884,19.486,51.177,36.25,72.8,14.13,18.23,37.111,33.381,60.369,35.547,30.444,2.833,58.658-15.083,81.875-32.712,27.227-20.674,50.051-46.918,67.832-76.057,22.779-37.327,37.41-79.293,45.644-122.239,7.331-38.234,9.657-77.808,2.538-116.081C610.376,67.083,567.422-10.567,494.957,1.192c-87.245,14.156-72.5,106.342-126.544,49.443-32.339-34.046-105.522-67.944-151.4,19.343S89.086,43.643,22.43,120.385Z" transform="translate(0)" fill="none"/>
    </clipPath>
    <linearGradient id="linear-gradient" x1="0.629" y1="0.043" x2="0.486" y2="0.361" gradientUnits="objectBoundingBox">
      <stop offset="0" stop-color="#228bc5"/>
      <stop offset="1" stop-color="#1e2369"/>
    </linearGradient>
    <linearGradient id="linear-gradient-2" x1="0.648" y1="-0.002" x2="0.465" y2="0.357" gradientUnits="objectBoundingBox">
      <stop offset="0" stop-color="#1fa6b2"/>
      <stop offset="1" stop-color="#2a8b4b"/>
    </linearGradient>
  </defs>
  <g id="グループ_3828" data-name="グループ 3828" transform="matrix(-0.839, 0.545, -0.545, -0.839, 783.656, 398.368)">
    <g id="グループ_3143" data-name="グループ 3143" transform="translate(0 0)" clip-path="url(#clip-path)">
      <path id="交差_8" data-name="交差 8" d="M-2175.361,3276.252l-52.091-33.828c-41.476-56.566,11.53-109.046-56.652-98.666-26.6,4.048-64.565-.8-85.994-26.261l176.926-272.441c2.514,6.739,4.512,13.708,7.251,20.365,4.146,10.08,10.612,19.984,20.623,24.3,9.64,4.149,20.83,2.357,30.72-1.155,23.789-8.446,43.45-26.456,68.072-32.78,20.752-5.33,46.244-3.358,64.545,8.3,23.953,15.26,34.457,44.478,41.45,70.636,8.2,30.679,10,62.94,6.455,94.448-4.546,40.368-17.709,79.5-36.131,115.7-16.4,32.232-37.229,62.6-64.252,86.63-27.142,24.136-67.607,46.059-105.425,46.063A89.782,89.782,0,0,1-2175.361,3276.252Z" transform="translate(2526.449 -2696.066)" stroke="rgba(0,0,0,0)" stroke-width="1" fill="url(#linear-gradient)"/>
      <path id="交差_7" data-name="交差 7" d="M-2387.462,3260.8l144.923-223.163a65.69,65.69,0,0,1,13.839,31.3c1.6,11.025.236,22.258.747,33.386s3.322,22.9,11.469,30.5c7.846,7.32,19.237,9.454,29.967,9.486,11.629.033,23.121-2.09,34.607-4.214,14.006-2.589,28-5.179,42.218-3.856,21.812,2.029,45.67,12.719,59.263,30.252,17.792,22.952,17.823,54.7,15.53,82.289-2.687,32.358-12.082,64.03-26.365,93.133-16.445,33.509-39.248,63.656-65.634,90.1Z" transform="translate(2529.065 -2816.656)" stroke="rgba(0,0,0,0)" stroke-width="1" fill="url(#linear-gradient-2)"/>
    </g>
  </g>
</svg>
