<svg id="グループ_4205" data-name="グループ 4205" xmlns="http://www.w3.org/2000/svg" xmlns:xlink="http://www.w3.org/1999/xlink" width="781.968" height="593.409" viewBox="0 0 781.968 593.409">
  <defs>
    <clipPath id="clip-path">
      <path id="パス_1929" data-name="パス 1929" d="M997.419,584.673c57.82-66.572,15.43-121.776-30.74-133.158-65.412-16.123-86.841,13.936-103.868-90.188-5.778-35.351-25.765-69.715-58.438-86.27-23.5-11.9-52.368-13.457-76.4-2.654-13.37,6.011-24.868,15.453-37.582,22.744s-27.754,12.477-41.942,8.8c-13.663-3.54-24.074-14.671-31.687-26.559-18.307-28.588-24.344-63.934-45.287-90.954-17.652-22.775-46.362-41.7-75.418-44.408-38.033-3.54-73.281,18.843-102.285,40.866-34.014,25.828-62.527,58.614-84.741,95.017-28.457,46.633-46.736,99.06-57.022,152.711-9.158,47.765-12.064,97.2-3.171,145.018,14.063,75.62,67.726,172.627,158.254,157.937,108.993-17.685,90.576-132.851,158.09-61.769,40.4,42.534,131.827,84.882,189.147-24.165S914.146,680.545,997.419,584.673Z" transform="translate(-243.472 -141.658)" fill="none"/>
    </clipPath>
    <linearGradient id="linear-gradient" x1="0.371" y1="0.957" x2="0.514" y2="0.639" gradientUnits="objectBoundingBox">
      <stop offset="0" stop-color="#fee00a"/>
      <stop offset="1" stop-color="#ce286f"/>
    </linearGradient>
    <linearGradient id="linear-gradient-2" x1="0.352" y1="1.002" x2="0.535" y2="0.643" gradientUnits="objectBoundingBox">
      <stop offset="0" stop-color="#ea7a15"/>
      <stop offset="1" stop-color="#d82b1b"/>
    </linearGradient>
  </defs>
  <g id="グループ_3143" data-name="グループ 3143" clip-path="url(#clip-path)">
    <path id="交差_15" data-name="交差 15" d="M-1022.164-2508.239c-24.027-4.649-46.1-19.951-57.574-41.566-6.386-12.024-9.445-25.5-14.624-38.094s-13.257-24.967-25.763-30.353c-10.316-4.441-22.056-3.435-32.976-.3v-281.969h290.687c15.406,19.749,23.136,48.827,15.745,90.362-9.509,53.433,20.594,71.229,55.567,87.733v181.15a75.342,75.342,0,0,1-11.454-4.011c-57.184-25.425-55.786-59.688-127.589,7.023-20.3,18.864-47.45,31.613-75.255,31.614A88.159,88.159,0,0,1-1022.164-2508.239Z" transform="translate(1450.912 2969.737)" stroke="rgba(0,0,0,0)" stroke-width="1" fill="url(#linear-gradient)"/>
    <path id="交差_14" data-name="交差 14" d="M-1002.765-2482.974c-31.275,13.391-69,14.9-98.925-2.847-21.523-12.759-37.484-35.1-41.08-59.866-2-13.773-.294-27.806-.933-41.709s-4.15-28.6-14.328-38.1c-9.8-9.144-24.031-11.811-37.436-11.85-14.529-.042-28.886,2.61-43.235,5.263-4.327.8-8.653,1.6-12.983,2.326v-268.951H-943.4c3.87,8.258,14.635,14.43,37.7,18.939a144.187,144.187,0,0,1,16.016,4.124v417.211C-922.239-2495.645-919.755-2518.517-1002.765-2482.974Z" transform="translate(1549.497 2823.929)" stroke="rgba(0,0,0,0)" stroke-width="1" fill="url(#linear-gradient-2)"/>
  </g>
</svg>
