<svg xmlns="http://www.w3.org/2000/svg" xmlns:xlink="http://www.w3.org/1999/xlink" width="355.283" height="474.032" viewBox="0 0 355.283 474.032">
  <defs>
    <linearGradient id="linear-gradient" x1="0.629" y1="0.043" x2="0.486" y2="0.361" gradientUnits="objectBoundingBox">
      <stop offset="0" stop-color="#fee00a"/>
      <stop offset="1" stop-color="#ce286f"/>
    </linearGradient>
  </defs>
  <path id="交差_11" data-name="交差 11" d="M-1388.673,5129.884c-55.467-59.553,7.3-118.287-64.131-107.412-42.746,6.506-115.119-10.155-99.211-99.552s-107.922-53.068-113.078-146.526c-3.58-64.894,46.05-77.878,78.077-63.639,45.373,20.173,44.265,47.359,101.237-5.573,19.342-17.971,46.509-28.949,73.014-23.821,19.065,3.688,36.576,15.831,45.682,32.981,5.068,9.54,7.495,20.237,11.6,30.227s10.519,19.81,20.441,24.082c7.521,3.237,15.994,2.827,24.04.809v381.967a108.577,108.577,0,0,1-18.651,1.679C-1351.192,5155.108-1371.86,5147.937-1388.673,5129.884Z" transform="translate(1665.782 -4681.574)" stroke="rgba(0,0,0,0)" stroke-width="1" fill="url(#linear-gradient)"/>
</svg>
