<svg xmlns="http://www.w3.org/2000/svg" xmlns:xlink="http://www.w3.org/1999/xlink" width="532.403" height="174.7" viewBox="0 0 532.403 174.7">
  <defs>
    <linearGradient id="linear-gradient" x1="0.323" y1="0.481" x2="0.878" y2="0.662" gradientUnits="objectBoundingBox">
      <stop offset="0" stop-color="#228bc5"/>
      <stop offset="1" stop-color="#1fa6b2"/>
    </linearGradient>
    <linearGradient id="linear-gradient-2" x1="0.302" y1="0.037" x2="0.645" y2="0.909" gradientUnits="objectBoundingBox">
      <stop offset="0" stop-color="#1e2369"/>
      <stop offset="1" stop-color="#1fa6b2"/>
    </linearGradient>
    <linearGradient id="linear-gradient-3" x1="0.507" y1="1.859" x2="0.557" y2="9.433" gradientUnits="objectBoundingBox">
      <stop offset="0" stop-color="#ce286f"/>
      <stop offset="1" stop-color="#d82b1b"/>
    </linearGradient>
    <linearGradient id="linear-gradient-4" x1="0.469" y1="-0.271" x2="0.576" y2="2.309" xlink:href="#linear-gradient-3"/>
    <linearGradient id="linear-gradient-5" x1="0.499" y1="0.543" x2="0.58" y2="2.827" xlink:href="#linear-gradient-3"/>
    <linearGradient id="linear-gradient-6" x1="0.474" y1="-0.284" x2="0.61" y2="2.179" xlink:href="#linear-gradient-3"/>
    <linearGradient id="linear-gradient-7" x1="0.499" y1="0.543" x2="0.586" y2="2.839" xlink:href="#linear-gradient-3"/>
    <linearGradient id="linear-gradient-8" x1="0.718" y1="0.131" x2="0.441" y2="0.908" xlink:href="#linear-gradient"/>
    <linearGradient id="linear-gradient-9" x1="0.451" y1="0.64" x2="1.486" y2="-0.015" gradientUnits="objectBoundingBox">
      <stop offset="0" stop-color="#f70f47"/>
      <stop offset="1" stop-color="#ffb41d"/>
    </linearGradient>
    <linearGradient id="linear-gradient-10" x1="0.69" y1="1.312" x2="0.357" y2="-0.421" xlink:href="#linear-gradient-9"/>
    <linearGradient id="linear-gradient-11" x1="1.738" y1="-0.852" x2="0.697" y2="0.239" xlink:href="#linear-gradient-9"/>
    <linearGradient id="linear-gradient-12" x1="0.469" y1="1.447" x2="0.469" y2="-0.735" gradientUnits="objectBoundingBox">
      <stop offset="0" stop-color="#36078b"/>
      <stop offset="1" stop-color="#16b1ff"/>
    </linearGradient>
    <linearGradient id="linear-gradient-13" x1="1.661" y1="-4.794" x2="0.563" y2="-0.018" xlink:href="#linear-gradient-9"/>
    <linearGradient id="linear-gradient-14" x1="2.397" y1="-1.28" x2="-0.513" y2="1.946" xlink:href="#linear-gradient-9"/>
    <linearGradient id="linear-gradient-15" x1="-2.963" y1="5.876" x2="3.375" y2="-2.107" xlink:href="#linear-gradient-9"/>
    <linearGradient id="linear-gradient-16" x1="-1.804" y1="6.197" x2="3.152" y2="-4.47" xlink:href="#linear-gradient-9"/>
    <linearGradient id="linear-gradient-17" x1="3.298" y1="-8.007" x2="0.144" y2="1.673" xlink:href="#linear-gradient-9"/>
    <linearGradient id="linear-gradient-18" y1="0.5" x2="1" y2="0.5" gradientUnits="objectBoundingBox">
      <stop offset="0" stop-color="#228bc5"/>
      <stop offset="1" stop-color="#ce286f"/>
    </linearGradient>
    <linearGradient id="linear-gradient-19" y1="0.5" x2="1" y2="0.5" gradientUnits="objectBoundingBox">
      <stop offset="0" stop-color="#1e2369"/>
      <stop offset="0.347" stop-color="#1e2369"/>
      <stop offset="1" stop-color="#228bc5"/>
    </linearGradient>
    <linearGradient id="linear-gradient-20" x1="-0.356" y1="-0.71" x2="0.002" y2="-0.206" gradientUnits="objectBoundingBox">
      <stop offset="0" stop-color="#fee00a"/>
      <stop offset="1" stop-color="#d82b1b"/>
    </linearGradient>
    <linearGradient id="linear-gradient-21" x1="0.658" y1="-0.503" x2="0.614" y2="-0.223" gradientUnits="objectBoundingBox">
      <stop offset="0" stop-color="#fea600"/>
      <stop offset="1" stop-color="#fee00a"/>
    </linearGradient>
    <linearGradient id="linear-gradient-22" x1="-0.351" y1="3.435" x2="-2.86" y2="12.085" gradientUnits="objectBoundingBox">
      <stop offset="0" stop-color="#fea600"/>
      <stop offset="1" stop-color="#ef1829"/>
    </linearGradient>
    <linearGradient id="linear-gradient-23" x1="-0.305" y1="3.276" x2="-2.814" y2="11.925" xlink:href="#linear-gradient-22"/>
    <linearGradient id="linear-gradient-24" x1="0.967" y1="-0.214" x2="0.033" y2="1.214" xlink:href="#linear-gradient-22"/>
    <linearGradient id="linear-gradient-25" x1="2.548" y1="0.086" x2="-6.731" y2="1.963" gradientUnits="objectBoundingBox">
      <stop offset="0" stop-color="#fea600"/>
      <stop offset="1" stop-color="#ea7a15"/>
    </linearGradient>
    <linearGradient id="linear-gradient-27" x1="-0.908" y1="-0.201" x2="1.433" y2="1.212" gradientUnits="objectBoundingBox">
      <stop offset="0" stop-color="#1fa6b2"/>
      <stop offset="1" stop-color="#228bc5"/>
    </linearGradient>
    <linearGradient id="linear-gradient-28" x1="0.112" y1="-0.592" x2="0.112" y2="1.172" xlink:href="#linear-gradient"/>
    <linearGradient id="linear-gradient-29" x1="0.379" y1="0.23" x2="0.373" y2="1.09" xlink:href="#linear-gradient-2"/>
    <linearGradient id="linear-gradient-30" x1="0.33" y1="-1.029" x2="0.894" y2="4.267" gradientUnits="objectBoundingBox">
      <stop offset="0" stop-color="blue"/>
      <stop offset="1" stop-color="#9e005d"/>
    </linearGradient>
    <linearGradient id="linear-gradient-31" x1="0.696" y1="-1.404" x2="1.493" y2="0.853" xlink:href="#linear-gradient-30"/>
    <linearGradient id="linear-gradient-32" x1="0.164" y1="-0.477" x2="1.258" y2="1.488" xlink:href="#linear-gradient-30"/>
    <linearGradient id="linear-gradient-33" x1="0.169" y1="-1.215" x2="1.688" y2="0.897" xlink:href="#linear-gradient-30"/>
    <linearGradient id="linear-gradient-34" x1="0.273" y1="-0.392" x2="1.044" y2="1.633" xlink:href="#linear-gradient-30"/>
    <linearGradient id="linear-gradient-35" x1="19.334" y1="6.392" x2="19.334" y2="8.072" gradientUnits="objectBoundingBox">
      <stop offset="0" stop-color="#36078b"/>
      <stop offset="1" stop-color="#168d68"/>
    </linearGradient>
    <linearGradient id="linear-gradient-36" x1="11.15" y1="5.953" x2="11.15" y2="8.155" xlink:href="#linear-gradient-35"/>
    <linearGradient id="linear-gradient-37" x1="-2.862" y1="0.264" x2="-2.86" y2="1" gradientUnits="objectBoundingBox">
      <stop offset="0" stop-color="#36078b"/>
      <stop offset="1" stop-color="#1fa6b2"/>
    </linearGradient>
    <linearGradient id="linear-gradient-38" x1="-5.684" y1="1.778" x2="-5.684" y2="-0.557" gradientUnits="objectBoundingBox">
      <stop offset="0" stop-color="#1e2369"/>
      <stop offset="1" stop-color="#1e2369"/>
    </linearGradient>
    <linearGradient id="linear-gradient-39" x1="-4.781" y1="0.931" x2="-4.802" y2="0.278" gradientUnits="objectBoundingBox">
      <stop offset="0" stop-color="#1e2369"/>
      <stop offset="1" stop-color="#228bc5"/>
    </linearGradient>
    <linearGradient id="linear-gradient-40" x1="-11.064" y1="12.763" x2="-11.064" y2="10.311" gradientUnits="objectBoundingBox">
      <stop offset="0" stop-color="#228bc5"/>
      <stop offset="1" stop-color="#228bc5"/>
    </linearGradient>
    <linearGradient id="linear-gradient-41" x1="-31.368" y1="-78.941" x2="-31.368" y2="-85.102" xlink:href="#linear-gradient-40"/>
    <linearGradient id="linear-gradient-42" x1="0.302" y1="-0.325" x2="0.878" y2="2.011" xlink:href="#linear-gradient-35"/>
    <linearGradient id="linear-gradient-43" x1="0.4" y1="-0.047" x2="1.048" y2="3.677" xlink:href="#linear-gradient-35"/>
    <linearGradient id="linear-gradient-44" x1="11.23" y1="0.758" x2="12.205" y2="-0.698" xlink:href="#linear-gradient-12"/>
    <linearGradient id="linear-gradient-45" x1="15.553" y1="11.24" x2="16.69" y2="9.993" xlink:href="#linear-gradient-12"/>
    <linearGradient id="linear-gradient-46" x1="16.587" y1="22.749" x2="17.883" y2="21.697" xlink:href="#linear-gradient-12"/>
    <linearGradient id="linear-gradient-47" x1="8.409" y1="33.985" x2="9.808" y2="32.988" xlink:href="#linear-gradient-12"/>
    <linearGradient id="linear-gradient-48" x1="3.826" y1="2.39" x2="4.875" y2="1.027" xlink:href="#linear-gradient-12"/>
    <linearGradient id="linear-gradient-49" x1="-0.2" y1="0.802" x2="1.159" y2="0.157" gradientUnits="objectBoundingBox">
      <stop offset="0.483" stop-color="#36078b"/>
      <stop offset="1" stop-color="#16b1ff"/>
    </linearGradient>
    <linearGradient id="linear-gradient-50" x1="-15.986" y1="-0.759" x2="-14.628" y2="-1.769" xlink:href="#linear-gradient-12"/>
    <linearGradient id="linear-gradient-51" x1="0.768" y1="0.984" x2="0.122" y2="0.02" xlink:href="#linear-gradient-49"/>
    <linearGradient id="linear-gradient-52" x1="0.373" y1="1.908" x2="1.461" y2="0.591" xlink:href="#linear-gradient-12"/>
    <linearGradient id="linear-gradient-53" x1="-0.131" y1="0.871" x2="1.111" y2="0.116" xlink:href="#linear-gradient-49"/>
    <linearGradient id="linear-gradient-54" x1="-0.021" y1="-0.537" x2="0.939" y2="-2.011" xlink:href="#linear-gradient-12"/>
    <linearGradient id="linear-gradient-55" x1="-0.062" y1="0.752" x2="1.052" y2="0.218" xlink:href="#linear-gradient-49"/>
    <linearGradient id="linear-gradient-56" x1="0.218" y1="1.246" x2="0.787" y2="-0.198" xlink:href="#linear-gradient-12"/>
    <linearGradient id="linear-gradient-57" x1="0.251" y1="1.854" x2="0.754" y2="-0.551" xlink:href="#linear-gradient-12"/>
    <linearGradient id="linear-gradient-58" x1="-0.91" y1="0.913" x2="1.397" y2="0.025" xlink:href="#linear-gradient-12"/>
    <linearGradient id="linear-gradient-59" x1="-0.454" y1="0.878" x2="1.413" y2="0.066" xlink:href="#linear-gradient-12"/>
    <linearGradient id="linear-gradient-60" x1="0.886" y1="-0.283" x2="0.886" y2="0.362" gradientUnits="objectBoundingBox">
      <stop offset="0" stop-color="#2c27ce"/>
      <stop offset="1" stop-color="#ef1d68"/>
    </linearGradient>
    <linearGradient id="linear-gradient-61" x1="0.78" y1="-0.055" x2="0.78" y2="-0.561" xlink:href="#linear-gradient-60"/>
  </defs>
  <g id="グループ_4186" data-name="グループ 4186" transform="translate(-453.257 -6884.772)">
    <g id="グループ_4182" data-name="グループ 4182" transform="translate(541.461 6950.583)">
      <path id="パス_2059" data-name="パス 2059" d="M269.221,258.685a9.028,9.028,0,0,0-3.507,8.671,20.62,20.62,0,0,1-.67,9.185c-.67,2.086-2.985,9.062,5.226,8.9s8.725-9.774,7.779-14.7.782-8.394-.457-9.893S273.477,255.572,269.221,258.685Z" transform="translate(-258.795 -257.489)" fill="#2e1c00"/>
      <path id="パス_2060" data-name="パス 2060" d="M292.86,273.042c1.536-1.208,3.081-2.522,3.4-1.155.332,1.438.328,1.288-.768,2.285S291.568,274.057,292.86,273.042Z" transform="translate(-251.403 -253.881)" fill="#ffaf84"/>
      <path id="パス_2061" data-name="パス 2061" d="M298.617,272.947c-1.035.467-8.3,1.932-11.256,2.855-.026-.01-.05-.021-.079-.03-1.469-.407-5.513-2.37-10.96-4.786a6.889,6.889,0,0,0-4.861.286c-.974.487-1.3,2.15.467,3.05a43.8,43.8,0,0,0,5.847,2.526,38.569,38.569,0,0,0,8.96,2.478,1.944,1.944,0,0,0,.931.01,25.928,25.928,0,0,0,7.889-2.994c2.583-1.352,3.594-.928,4-1.745C299.891,273.934,299.389,272.6,298.617,272.947Z" transform="translate(-257.113 -254.046)" fill="url(#linear-gradient)"/>
      <path id="パス_2062" data-name="パス 2062" d="M296.865,343c0,.776-8.271,1.4-18.474,1.4s-18.471-.629-18.471-1.4,8.27-1.4,18.471-1.4S296.865,342.229,296.865,343Z" transform="translate(-259.92 -235.52)" fill="#d8d8d8"/>
      <path id="パス_2063" data-name="パス 2063" d="M267.3,339.519a8.968,8.968,0,0,1,.193,1.473c.093.593.638.807.953,1.294.347.536.893,1.4-1.238,1.439-2.28.045-3.631-.112-3.245-1.4a6.771,6.771,0,0,0,.436-2.278,1.432,1.432,0,0,1,.258-1.111C264.915,338.684,266.962,338.229,267.3,339.519Z" transform="translate(-258.881 -236.291)" fill="#79186a"/>
      <path id="パス_2064" data-name="パス 2064" d="M269.982,266.427c-.019.168-.288,3.785-.335,6.559-.023,1.361.957,2.651,1.937,2.684h.043a2.418,2.418,0,0,0,2.007-2.543c-.154-2.416-.039-4.888-.035-4.926Z" transform="translate(-257.38 -255.155)" fill="#ed9169"/>
      <path id="パス_2065" data-name="パス 2065" d="M268.135,281a47.228,47.228,0,0,1,1.735,7.595,19.262,19.262,0,0,1-.023,5.717c-.155,1.14-.38,2.273-.639,3.393-.1.425-.932,3.853-.971,4.22h15.65c-.15-3.066-3.642-12.7-1.279-18.936,1.637-4.32-.537-4.452-2.013-8.048a10.548,10.548,0,0,0-1.25-2.608,4.5,4.5,0,0,0-2.394-1.468,8.818,8.818,0,0,0-1.457-.2c-2.647-.213-8.884-.98-9.469,2.787a6.664,6.664,0,0,0,.31,3.046c.349,1.1.872,2.134,1.31,3.2C267.822,280.127,267.985,280.563,268.135,281Z" transform="translate(-258.342 -254.103)" fill="url(#linear-gradient-2)"/>
      <path id="パス_2066" data-name="パス 2066" d="M267.944,305.343s-1.351-3.409-.063-9.936h15.65a95.845,95.845,0,0,1,.569,9.936Z" transform="translate(-257.986 -247.585)" fill="url(#linear-gradient-3)"/>
      <g id="グループ_3180" data-name="グループ 3180" transform="translate(5.375 48.463)">
        <g id="グループ_3179" data-name="グループ 3179">
          <path id="パス_2067" data-name="パス 2067" d="M271.855,321.119c1.254-5.288-3.95-6.219-5.593-2.394-2.324,5.411-2.139,22.7-2.015,26.156.016.453.254.367.506.276a3.75,3.75,0,0,1,1.653-.31,1.451,1.451,0,0,1,.873.711C267.768,340.855,270.642,326.24,271.855,321.119Z" transform="translate(-264.182 -290.568)" fill="url(#linear-gradient-4)"/>
          <path id="パス_2068" data-name="パス 2068" d="M276.117,305.924c.549-6.568-1.957-11.67-5.885-9.5-1.652.913-2.257,2.739-2.478,4.46s-1.439,19.59-1.865,22.819c-.961,7.281,4.579,5.318,5.181,3.3C272.586,321.908,275.817,309.5,276.117,305.924Z" transform="translate(-263.765 -295.916)" fill="url(#linear-gradient-5)"/>
        </g>
      </g>
      <path id="パス_2069" data-name="パス 2069" d="M282.583,320.648c.206-4.929-4.419-4.824-5.581-.812-1.829,6.311,1.332,19.861,1.53,27.6.8-1.337,1.566-1.661,1.925-1.632a1.282,1.282,0,0,1,.9.5C281.236,336.113,282.363,325.919,282.583,320.648Z" transform="translate(-255.606 -241.976)" fill="url(#linear-gradient-6)"/>
      <path id="パス_2070" data-name="パス 2070" d="M277.909,326.664c.615,2.013,5.909,4.341,5.355-2.984-.245-3.249-.9-21.192-1.024-22.921s-.415-4.258-1.251-4.573c-4.181-1.578-8.234,3.582-7.134,10.076C274.588,310.6,276.633,322.49,277.909,326.664Z" transform="translate(-256.328 -247.457)" fill="url(#linear-gradient-7)"/>
      <path id="パス_2071" data-name="パス 2071" d="M294.723,271.658a5.667,5.667,0,0,1,2.4-1.189c.677-.059-.795.725-1.324,1.194S294.1,272.136,294.723,271.658Z" transform="translate(-250.877 -254.1)" fill="#ffaf84"/>
      <path id="パス_2072" data-name="パス 2072" d="M268.539,289.67c1.911-.385,2.883-1.027,3.755-.545s-.41,2.164-1.062,2.439-2.937,1.458-3.608.826A1.7,1.7,0,0,1,268.539,289.67Z" transform="translate(-258.007 -249.271)" fill="#ffaf84"/>
      <path id="パス_2073" data-name="パス 2073" d="M264.011,286c1.086-1.69,3.511-4.869,6.481-9a6.889,6.889,0,0,0,.718-4.815c-.277-1.053-1.84-1.71-3.081-.169a43.618,43.618,0,0,0-3.671,5.2c-3.235,5.181-4.139,7.659-4.417,8.817a1.233,1.233,0,0,0,.525,1.215,2.067,2.067,0,0,0,.11.179,25.9,25.9,0,0,0,5.891,6.04c2.271,1.829,2.284,2.925,3.2,2.975.74.04,1.766-.952,1.138-1.521C270.088,294.185,266.107,288.492,264.011,286Z" transform="translate(-259.895 -253.933)" fill="url(#linear-gradient-8)"/>
      <path id="パス_2074" data-name="パス 2074" d="M268.1,266.548c.8,3,.994,3.66,2.527,4.693a7.272,7.272,0,0,0,4.973,1.066c1.561-.251,2.453-2.086,2.6-3.433a22.435,22.435,0,0,0-.9-7.862,4.988,4.988,0,0,0-5.067-3.026C270.075,258.332,266.159,259.219,268.1,266.548Z" transform="translate(-257.92 -257.371)" fill="#ffaf84"/>
      <path id="パス_2075" data-name="パス 2075" d="M281.134,340.319a5.347,5.347,0,0,0,2.218,1.68c1.183.528,3.694.778,2.3,1.244a8.373,8.373,0,0,1-3.844.052,16.513,16.513,0,0,0-2.592-.156c-1.281-.009-1.291-.088-1.119-1.532C278.334,339.617,280.558,339.2,281.134,340.319Z" transform="translate(-255.193 -236.015)" fill="#79186a"/>
      <path id="パス_2076" data-name="パス 2076" d="M276.793,259.616c1.521,1.845-6.553,6.982-8.532,6.972s-2.134-3.762-.946-5.871S273.2,255.259,276.793,259.616Z" transform="translate(-258.184 -257.489)" fill="#2e1c00"/>
      <path id="パス_2077" data-name="パス 2077" d="M272.1,259.566c.59,1.675,3.678,1.583,4.422,2.927.464.835.16-1.986-.752-3.14S270.913,256.2,272.1,259.566Z" transform="translate(-256.796 -257.433)" fill="#2e1c00"/>
      <path id="パス_2078" data-name="パス 2078" d="M269.624,264.7c.436,1.068.337,2.119-.223,2.347s-1.366-.452-1.8-1.52-.337-2.12.223-2.347S269.187,263.637,269.624,264.7Z" transform="translate(-257.986 -256.013)" fill="#ffaf84"/>
    </g>
    <g id="グループ_4180" data-name="グループ 4180" transform="matrix(0.998, -0.07, 0.07, 0.998, 453.257, 6972.737)">
      <path id="パス_1930" data-name="パス 1930" d="M12.593.48c3.178-1.475,4.819.752,4.746,2.64-.1,2.676-1.488,3.162,2.3,4.959,2.8,1.326,3.86,4.7,1.185,6.815-3.74,2.958.835,4.257,2.053,6.206,2.518,4.026-.54,5.5-5.428,8.309-5.019,2.888-9.131,2.349-13.281-.538C1.1,26.739-.9,24.142.406,21.38c1.875-3.967,6.07-1.995,4.1-5.356-1.179-2.011-1.789-5.968,3.005-6.956S8.014,2.6,12.593.48Z" transform="translate(14.553 3.767)" fill="url(#linear-gradient-9)"/>
      <g id="グループ_3147" data-name="グループ 3147" transform="translate(0 0)">
        <path id="パス_1931" data-name="パス 1931" d="M6.546.022C2.258-.3,1.335,2.969,2.237,5.106,3.513,8.134,5.314,8.1,1.739,11.8c-2.638,2.731-2.4,7.066,1.585,8.341,5.576,1.781.882,5.251.325,8.017-1.152,5.712,3,6.079,9.828,7.2C20.49,36.5,24.98,34.1,28.5,28.991c2.6-3.773,3.775-7.622,1.081-10.231-3.87-3.745-7.836.333-7.024-4.38.485-2.819-.526-7.629-6.461-6.69S12.723.483,6.546.022Z" transform="translate(0 0)" fill="url(#linear-gradient-10)"/>
      </g>
      <path id="パス_1932" data-name="パス 1932" d="M2.777,6.462C-.714,13.345-1.54,17.834,4,17.65S14.723,2.478,10.309.313C7.2-1.215,4.441,3.18,2.777,6.462Z" transform="translate(14.873 21.656)" fill="url(#linear-gradient-11)"/>
      <path id="パス_1933" data-name="パス 1933" d="M8.422,22.39l12.391-1.638a3.184,3.184,0,0,0,2.766-3.058L24.1.653a.633.633,0,0,0-.717-.648L.551,3.023a.634.634,0,0,0-.524.812L4.959,20.154A3.183,3.183,0,0,0,8.422,22.39Z" transform="translate(10.101 32.318)" fill="url(#linear-gradient-12)"/>
      <path id="パス_1934" data-name="パス 1934" d="M5.479.273c4.014.663,7.439,1.85,5.091,3.314s-11.5-1-10.493-2.7C.785-.323,3.565-.043,5.479.273Z" transform="translate(3.761 17.503)" fill="url(#linear-gradient-13)"/>
      <path id="パス_1935" data-name="パス 1935" d="M.749,3.378C1.956,5.694,3.028,6.806,4.068,5.246S2.006-.694.54.094C-.494.65.174,2.274.749,3.378Z" transform="translate(6.613 2.104)" fill="url(#linear-gradient-14)"/>
      <path id="パス_1936" data-name="パス 1936" d="M.362,2.627C-.27,5.161-.2,6.7,1.61,6.226S4,.41,2.381.029C1.239-.24.663,1.418.362,2.627Z" transform="translate(27.971 4.958)" fill="url(#linear-gradient-15)"/>
      <path id="パス_1937" data-name="パス 1937" d="M2.854,3.3C4.337,1.583,4.892.362,3.3.021S-.836,3.588.27,4.519C1.049,5.175,2.147,4.117,2.854,3.3Z" transform="translate(31.48 15.158)" fill="url(#linear-gradient-16)"/>
      <path id="パス_1938" data-name="パス 1938" d="M2.263.156C.675-.156-.28-.066.073,1.041s3.678,1.3,3.863.284C4.067.61,3.022.3,2.263.156Z" transform="translate(12.722 16.132)" fill="url(#linear-gradient-17)"/>
    </g>
    <g id="グループ_4183" data-name="グループ 4183" transform="translate(749 6884.772)">
      <g id="グループ_3160" data-name="グループ 3160" transform="translate(0)">
        <path id="パス_1957" data-name="パス 1957" d="M457.046,184.118V296.28l-148.229-1.313V194.075Z" transform="translate(-300.465 -175.872)" opacity="0.3" fill="url(#linear-gradient-18)"/>
        <path id="パス_1958" data-name="パス 1958" d="M446.1,190.43V292.051H303.83v-92.6Z" transform="translate(-300.543 -175.773)" fill="url(#linear-gradient-19)"/>
        <path id="パス_1959" data-name="パス 1959" d="M340.352,257.156l30.276-.7V214.852l-30.276,1.523Z" transform="translate(-299.968 -175.389)" fill="#46cccc" opacity="0.4"/>
        <g id="グループ_3151" data-name="グループ 3151" transform="translate(9.417 28.272)">
          <path id="パス_1960" data-name="パス 1960" d="M345.159,242.4l-35.294,1.162V205.9l35.294-2.069Z" transform="translate(-309.865 -203.835)" fill="#7bcaff" opacity="0.6"/>
          <path id="パス_1961" data-name="パス 1961" d="M338.347,223.4c0,6.647-5.011,12.224-11.145,12.455-6.083.23-10.979-4.895-10.979-11.444s4.9-12.121,10.979-12.448C333.336,211.635,338.347,216.754,338.347,223.4Z" transform="translate(-309.765 -203.707)" fill="#3a7bd8"/>
        </g>
        <path id="パス_1965" data-name="パス 1965" d="M441.782,285.633l-141.182.574V194.75l141.182-9.436Z" transform="translate(-300.601 -175.853)" fill="#7bcaff" opacity="0.5"/>
        <g id="グループ_3156" data-name="グループ 3156" transform="translate(43.111 43.929)">
          <g id="グループ_3152" data-name="グループ 3152">
            <path id="パス_1966" data-name="パス 1966" d="M356.707,239.461a9.406,9.406,0,0,1-10.772-1.979,10.237,10.237,0,0,1-2.671-5.121l4.826-1.318a4.8,4.8,0,0,0,6.763,3.553Z" transform="translate(-343.033 -219.063)" fill="url(#linear-gradient-20)"/>
            <path id="パス_1967" data-name="パス 1967" d="M360.095,237.159c-.079.086-.163.17-.245.252l-3.431-3.752a5.711,5.711,0,0,0,1.6-3.974,4.938,4.938,0,0,0-5.043-5.127,5.276,5.276,0,0,0-4.5,3.166l-4.436-2.142a11.146,11.146,0,0,1,1.88-2.886,9.642,9.642,0,0,1,14.172-.65A11.1,11.1,0,0,1,360.095,237.159Z" transform="translate(-343.021 -219.248)" fill="#edf4fc"/>
            <path id="パス_1968" data-name="パス 1968" d="M347.978,230a5.537,5.537,0,0,0,.116,1.132l-4.826,1.318a11.322,11.322,0,0,1,.791-6.965l4.436,2.142A5.7,5.7,0,0,0,347.978,230Z" transform="translate(-343.037 -219.15)" fill="#1fa6b2"/>
            <path id="パス_1969" data-name="パス 1969" d="M359.683,237.188a10.375,10.375,0,0,1-3.155,2.236l-1.855-4.865a5.247,5.247,0,0,0,1.578-1.122Z" transform="translate(-342.854 -219.025)" fill="#ea7a15"/>
          </g>
          <path id="パス_1970" data-name="パス 1970" d="M361.915,241.962V240.92l-1.974.066v1.041Z" transform="translate(-342.771 -218.907)" fill="#a6edc8"/>
          <path id="パス_1971" data-name="パス 1971" d="M365.368,241.851v-1.045l-1.983.065v1.044Z" transform="translate(-342.717 -218.909)" fill="#a6edc8"/>
          <path id="パス_1972" data-name="パス 1972" d="M368.837,241.738v-1.047l-1.993.066V241.8Z" transform="translate(-342.663 -218.911)" fill="#a6edc8"/>
          <g id="グループ_3153" data-name="グループ 3153" transform="translate(22.344 3.394)">
            <path id="パス_1973" data-name="パス 1973" d="M367.491,222.695a1.775,1.775,0,0,0-1.932.506,2,2,0,0,0-.484.952l.871.163a.964.964,0,0,1,.88-.783.826.826,0,0,1,.333.052Z" transform="translate(-365.034 -222.589)" fill="#edf4fc"/>
            <path id="パス_1974" data-name="パス 1974" d="M368.095,223.08l-.044-.042-.611.714a.924.924,0,0,1,.285.68.974.974,0,0,1-.9.985.85.85,0,0,1-.808-.493l-.8.45a1.723,1.723,0,0,0,2.878.376A1.957,1.957,0,0,0,368.095,223.08Z" transform="translate(-365.032 -222.582)" fill="#ffc550"/>
            <path id="パス_1975" data-name="パス 1975" d="M365.927,224.493a1.02,1.02,0,0,1,.021-.2l-.871-.163a1.935,1.935,0,0,0,.143,1.229l.8-.45A.942.942,0,0,1,365.927,224.493Z" transform="translate(-365.035 -222.565)" fill="#ffc550"/>
            <path id="パス_1976" data-name="パス 1976" d="M368.021,223.043a1.675,1.675,0,0,0-.562-.35l-.331.889a.837.837,0,0,1,.281.176Z" transform="translate(-365.002 -222.588)" fill="#baf4d5"/>
          </g>
          <g id="グループ_3154" data-name="グループ 3154" transform="translate(22.344 14.813)">
            <path id="パス_1977" data-name="パス 1977" d="M365.179,236.489a1.713,1.713,0,0,0,1.646,1.082,1.775,1.775,0,0,0,.969-.333l-.483-.774a.861.861,0,0,1-1.122-.087.9.9,0,0,1-.191-.288Z" transform="translate(-365.033 -233.796)" fill="#baf4d5"/>
            <path id="パス_1978" data-name="パス 1978" d="M365.035,235.785c0,.021,0,.042,0,.062l.891-.063a1,1,0,0,1,.264-.71.87.87,0,0,1,1.273-.048.965.965,0,0,1,.216.966l.847.272a2,2,0,0,0,.1-.61,1.763,1.763,0,0,0-1.8-1.821A1.926,1.926,0,0,0,365.035,235.785Z" transform="translate(-365.035 -233.832)" fill="#d1d9fe"/>
            <path id="パス_1979" data-name="パス 1979" d="M367.429,236.333a.927.927,0,0,1-.151.133l.483.774a1.963,1.963,0,0,0,.731-1.009l-.847-.272A.994.994,0,0,1,367.429,236.333Z" transform="translate(-365 -233.798)" fill="#edf4fc"/>
            <path id="パス_1980" data-name="パス 1980" d="M365.037,235.817a1.881,1.881,0,0,0,.144.678l.819-.4a.971.971,0,0,1-.072-.339Z" transform="translate(-365.035 -233.802)" fill="#ffc550"/>
          </g>
          <g id="グループ_3155" data-name="グループ 3155" transform="translate(22.344 9.103)">
            <path id="パス_1981" data-name="パス 1981" d="M367.5,231.791a1.982,1.982,0,0,0,1.087-1.778,1.87,1.87,0,0,0-.285-1.008l-.753.538a.993.993,0,0,1-.121,1.185.936.936,0,0,1-.282.212Z" transform="translate(-365.002 -228.198)" fill="#d1d9fe"/>
            <path id="パス_1982" data-name="パス 1982" d="M366.828,231.985l.059,0-.029-.939a.842.842,0,0,1-.666-.25.98.98,0,0,1,0-1.338.891.891,0,0,1,.925-.265l.287-.9a1.643,1.643,0,0,0-.577-.077,1.935,1.935,0,0,0-1.792,1.958A1.757,1.757,0,0,0,366.828,231.985Z" transform="translate(-365.035 -228.211)" fill="#baf4d5"/>
            <path id="パス_1983" data-name="パス 1983" d="M367.432,229.4a.871.871,0,0,1,.121.154l.753-.538a1.7,1.7,0,0,0-.934-.729l-.287.9A.851.851,0,0,1,367.432,229.4Z" transform="translate(-365.003 -228.209)" fill="#ffc550"/>
            <path id="パス_1984" data-name="パス 1984" d="M366.858,231.939a1.734,1.734,0,0,0,.65-.178l-.354-.849a.882.882,0,0,1-.325.088Z" transform="translate(-365.007 -228.168)" fill="#edf4fc"/>
          </g>
        </g>
        <g id="グループ_3157" data-name="グループ 3157" transform="translate(3.285)">
          <path id="パス_1985" data-name="パス 1985" d="M446.1,190.659,303.828,199.68V186.322L446.1,176Z" transform="translate(-303.828 -176)" fill="#d3d3d3"/>
          <path id="パス_1986" data-name="パス 1986" d="M443.178,187.667l-136.987,8.949V192.2l136.987-9.363Z" transform="translate(-303.791 -175.892)" fill="#f2f2f2"/>
          <path id="パス_1987" data-name="パス 1987" d="M308.288,190.485l-2.1.145v-2.294l2.1-.149Z" transform="translate(-303.791 -175.808)" fill="#f9f4ea"/>
          <path id="パス_1988" data-name="パス 1988" d="M311.973,190.229l-2.108.146v-2.3l2.108-.15Z" transform="translate(-303.733 -175.812)" fill="#f9f4ea"/>
          <path id="パス_1989" data-name="パス 1989" d="M315.677,189.972l-2.119.147v-2.306l2.119-.15Z" transform="translate(-303.675 -175.816)" fill="#f9f4ea"/>
        </g>
        <g id="グループ_3158" data-name="グループ 3158" transform="translate(66.352 20.546)">
          <path id="パス_1990" data-name="パス 1990" d="M365.918,277.5l69.662-.661V196.228l-69.662,4.186Z" transform="translate(-365.918 -196.228)" fill="#7bcaff" opacity="0.5"/>
          <path id="パス_1991" data-name="パス 1991" d="M375.076,217.735a1.806,1.806,0,0,1-1.255-.5,1.923,1.923,0,0,1-.592-1.412V205.268a2.067,2.067,0,0,1,1.89-2.066l62.139-3.577a1.94,1.94,0,0,1,2.067,1.956v11a2.149,2.149,0,0,1-2.018,2.125l-62.138,3.026Zm62.3-17.182-.065,0-62.138,3.577a1.125,1.125,0,0,0-1.014,1.137V215.82a1.006,1.006,0,0,0,.3.738.91.91,0,0,0,.66.245l62.138-3.026a1.208,1.208,0,0,0,1.134-1.2v-11a1.027,1.027,0,0,0-.318-.756A1.007,1.007,0,0,0,437.376,200.552Z" transform="translate(-365.803 -196.175)" fill="#bbceff"/>
          <path id="パス_1992" data-name="パス 1992" d="M375.092,235.379a1.816,1.816,0,0,1-1.273-.515,1.944,1.944,0,0,1-.591-1.416V222.9a2.042,2.042,0,0,1,1.9-2.049L437.263,218a1.94,1.94,0,0,1,1.455.538,1.963,1.963,0,0,1,.607,1.436v11a2.122,2.122,0,0,1-2.023,2.1l-62.14,2.3Zm62.266-16.453h-.052l-62.139,2.85a1.1,1.1,0,0,0-1.008,1.119v10.551a1.021,1.021,0,0,0,.306.746.931.931,0,0,0,.664.254l62.138-2.3a1.184,1.184,0,0,0,1.128-1.175v-11a1.044,1.044,0,0,0-.32-.764A1.025,1.025,0,0,0,437.357,218.926Z" transform="translate(-365.803 -195.886)" fill="#bbceff"/>
          <path id="パス_1993" data-name="パス 1993" d="M375.108,253.025a1.834,1.834,0,0,1-1.29-.528,1.961,1.961,0,0,1-.59-1.419V240.525a2.02,2.02,0,0,1,1.9-2.032l62.138-2.123a2.032,2.032,0,0,1,1.451.554,1.986,1.986,0,0,1,.605,1.44v11a2.1,2.1,0,0,1-2.028,2.087l-62.14,1.572ZM437.339,237.3H437.3l-62.139,2.123a1.081,1.081,0,0,0-1,1.1v10.552a1.037,1.037,0,0,0,.309.753.985.985,0,0,0,.665.263l62.139-1.572a1.161,1.161,0,0,0,1.122-1.157v-11a1.061,1.061,0,0,0-.322-.771A1.048,1.048,0,0,0,437.339,237.3Z" transform="translate(-365.803 -195.596)" fill="#bbceff"/>
          <path id="パス_1994" data-name="パス 1994" d="M375.125,270.67a1.854,1.854,0,0,1-1.309-.54,1.985,1.985,0,0,1-.588-1.424v-10.55a2,2,0,0,1,1.907-2.016l62.138-1.4a2.077,2.077,0,0,1,1.447.569,2,2,0,0,1,.6,1.444v11a2.075,2.075,0,0,1-2.034,2.069l-62.14.845Zm.013-.93.006.465-.006-.465,62.139-.845a1.14,1.14,0,0,0,1.116-1.139v-11a1.08,1.08,0,0,0-.325-.779,1.156,1.156,0,0,0-.774-.3l-62.139,1.4a1.061,1.061,0,0,0-1,1.086v10.55a1.057,1.057,0,0,0,.311.761A.862.862,0,0,0,375.139,269.739Z" transform="translate(-365.803 -195.307)" fill="#bbceff"/>
          <path id="パス_1995" data-name="パス 1995" d="M404.418,243.977l26.869-.813V241.01l-26.869.85Z" transform="translate(-365.312 -195.523)" fill="#7bcaff" opacity="0.5"/>
          <path id="パス_1996" data-name="パス 1996" d="M412.963,247.441l18.19-.507V244.78l-18.19.531Z" transform="translate(-365.178 -195.464)" fill="#7bcaff" opacity="0.5"/>
          <path id="パス_1997" data-name="パス 1997" d="M406.515,247.614l4.464-.125v-2.127l-4.464.13Z" transform="translate(-365.279 -195.455)" fill="#7bcaff" opacity="0.5"/>
          <path id="パス_1998" data-name="パス 1998" d="M404.418,208.42l26.869-1.434v-2.154L404.418,206.3Z" transform="translate(-365.312 -196.093)" fill="#7bcaff" opacity="0.5"/>
          <path id="パス_1999" data-name="パス 1999" d="M415.02,211.576l16.1-.82V208.6l-16.1.843Z" transform="translate(-365.145 -196.033)" fill="#7bcaff" opacity="0.5"/>
          <path id="パス_2000" data-name="パス 2000" d="M396.57,212.517l16.65-.849v-2.129l-16.65.871Z" transform="translate(-365.436 -196.019)" fill="#7bcaff" opacity="0.5"/>
          <path id="パス_2001" data-name="パス 2001" d="M420.2,261.674l10.84-.2v-2.154l-10.84.215Z" transform="translate(-365.064 -195.235)" fill="#7bcaff" opacity="0.5"/>
          <path id="パス_2002" data-name="パス 2002" d="M407.729,261.905l10.667-.2V259.57l-10.667.212Z" transform="translate(-365.26 -195.231)" fill="#7bcaff" opacity="0.5"/>
          <path id="パス_2003" data-name="パス 2003" d="M412.963,265.537l18.19-.294v-2.154l-18.19.318Z" transform="translate(-365.178 -195.176)" fill="#7bcaff" opacity="0.5"/>
          <path id="パス_2004" data-name="パス 2004" d="M393.708,265.847l17.473-.282v-2.127l-17.473.306Z" transform="translate(-365.481 -195.171)" fill="#7bcaff" opacity="0.5"/>
        </g>
        <path id="パス_2005" data-name="パス 2005" d="M378.226,232.221l62.4-2.415a1.659,1.659,0,0,0,1.581-1.646V217.134a1.5,1.5,0,0,0-1.581-1.51l-62.4,2.968a1.579,1.579,0,0,0-1.458,1.591v10.574A1.423,1.423,0,0,0,378.226,232.221Z" transform="translate(-299.395 -175.377)" fill="#f6f3ff"/>
        <g id="グループ_3159" data-name="グループ 3159" transform="translate(112.564 42.723)" opacity="0.6">
          <path id="パス_2006" data-name="パス 2006" d="M411.414,220.88l26.844-1.21v-1.608L411.414,219.3Z" transform="translate(-411.414 -218.061)" fill="#7bcaff"/>
          <path id="パス_2007" data-name="パス 2007" d="M411.414,223.646l26.844-1.161v-1.608l-26.844,1.189Z" transform="translate(-411.414 -218.017)" fill="#7bcaff"/>
          <path id="パス_2008" data-name="パス 2008" d="M426.014,225.8l12.015-.5v-1.608l-12.015.511Z" transform="translate(-411.184 -217.972)" fill="#7bcaff"/>
        </g>
        <path id="パス_2009" data-name="パス 2009" d="M389.091,227.493l6.962-.289v-7.213l-6.962.321Z" transform="translate(-299.202 -175.308)" fill="#ea7a15"/>
        <path id="パス_2010" data-name="パス 2010" d="M381.189,227.82l6.89-.285v-7.175l-6.89.317Z" transform="translate(-299.326 -175.302)" fill="#7bcaff" opacity="0.6"/>
      </g>
    </g>
    <g id="グループ_4184" data-name="グループ 4184" transform="translate(643.341 6923.832)">
      <g id="グループ_3163" data-name="グループ 3163" transform="translate(16.618)">
        <path id="パス_2011" data-name="パス 2011" d="M315.295,261.354l105.553,28.777a2.663,2.663,0,0,0,3.268-1.869l4.867-17.854a2.662,2.662,0,0,0-1.867-3.268L321.563,238.363a2.66,2.66,0,0,0-3.268,1.868l-4.868,17.854A2.662,2.662,0,0,0,315.295,261.354Z" transform="translate(-313.332 -238.268)" fill="url(#linear-gradient-21)"/>
        <g id="グループ_3162" data-name="グループ 3162" transform="translate(63.302 19.814)" opacity="0.6">
          <rect id="長方形_816" data-name="長方形 816" width="46.107" height="2.706" transform="translate(45.749 14.738) rotate(-164.75)" fill="url(#linear-gradient-22)"/>
          <rect id="長方形_817" data-name="長方形 817" width="46.107" height="2.706" transform="translate(44.483 19.379) rotate(-164.749)" fill="url(#linear-gradient-23)"/>
          <rect id="長方形_818" data-name="長方形 818" width="20.444" height="2.706" transform="matrix(-0.965, -0.263, 0.263, -0.965, 43.218, 24.02)" fill="url(#linear-gradient-24)"/>
        </g>
        <rect id="長方形_819" data-name="長方形 819" width="12.466" height="12.467" transform="translate(35.25 24.548) rotate(-164.751)" opacity="0.6" fill="url(#linear-gradient-25)"/>
        <rect id="長方形_820" data-name="長方形 820" width="12.466" height="12.467" transform="translate(21.252 20.731) rotate(-164.751)" opacity="0.6" fill="url(#linear-gradient-25)"/>
      </g>
      <g id="グループ_3170" data-name="グループ 3170" transform="translate(97.678 19.529)">
        <path id="パス_2012" data-name="パス 2012" d="M428.618,353.149c0,.7-8.4,1.262-18.762,1.262s-18.762-.566-18.762-1.262,8.4-1.261,18.762-1.261S428.618,352.452,428.618,353.149Z" transform="translate(-387.498 -247.724)" fill="#d8d8d8"/>
        <g id="グループ_3167" data-name="グループ 3167">
          <g id="グループ_3166" data-name="グループ 3166" transform="translate(0 2.201)">
            <path id="パス_2013" data-name="パス 2013" d="M410.44,291.811c1.223.623,2.368.4,5.589.208,4.64-.277,5.724-.64,8.492-1.822,1.807-.772-.42-4.617-3.049-4.259-2.222.3-9.483,4.016-10.836,4.195C409.739,290.25,409.447,291.3,410.44,291.811Z" transform="translate(-385.838 -255.774)" fill="#228bc5"/>
            <path id="パス_2014" data-name="パス 2014" d="M424.236,290.736c.472-.964,1.194-3.27,1.445-9.134a37.681,37.681,0,0,0-.142-6.216c-.186-1.96-2.062-2.747-2.985-2.281-1.487.751-2.995,2.775-2.96,3.808.2,5.831.707,10.3.505,11.723C419.8,290.711,423.675,291.878,424.236,290.736Z" transform="translate(-384.971 -256.921)" fill="url(#linear-gradient-27)"/>
            <path id="パス_2015" data-name="パス 2015" d="M420.251,349.446a8.9,8.9,0,0,0-.207,1.52c-.1.611-.683.833-1.021,1.335-.372.554-.956,1.354,1.326,1.4,2.442.047,3.889-.029,3.474-1.36a6.739,6.739,0,0,1-.466-2.35,1.44,1.44,0,0,0-.278-1.146C422.8,348.584,420.61,348.116,420.251,349.446Z" transform="translate(-385.053 -250.221)" fill="#79186a"/>
            <path id="パス_2016" data-name="パス 2016" d="M397.638,350.444a5.7,5.7,0,0,1-2.375,1.733c-1.267.545-3.955.8-2.461,1.282a9.281,9.281,0,0,0,4.115.053,18.318,18.318,0,0,1,2.777-.161c1.37-.009,1.38-.091,1.2-1.582C400.636,349.719,398.255,349.285,397.638,350.444Z" transform="translate(-387.386 -250.109)" fill="#79186a"/>
            <path id="パス_2017" data-name="パス 2017" d="M423.494,265.942c-.7,2.7-.881,3.289-2.254,4.222a6.511,6.511,0,0,1-4.566.6c-1.4-.22-2.061-2.058-2.195-3.266a17.09,17.09,0,0,1,.739-6.5,4.481,4.481,0,0,1,4.541-2.734C421.695,258.571,425.214,259.354,423.494,265.942Z" transform="translate(-385.431 -258.228)" fill="#ffaf84"/>
            <path id="パス_2018" data-name="パス 2018" d="M406.746,286.279c.918-.557,2.766-2.114,6.13-6.922a37.476,37.476,0,0,0,3.225-5.317c.9-1.753-.259-3.426-1.288-3.528-1.659-.167-4.018.728-4.544,1.618-2.971,5.022-4.947,9.066-5.881,10.155C403.024,283.874,405.66,286.941,406.746,286.279Z" transform="translate(-386.353 -257.141)" fill="url(#linear-gradient-28)"/>
            <path id="パス_2019" data-name="パス 2019" d="M421.209,269.716c-.075.961-.176,2.064-.3,3.067a2.648,2.648,0,0,1-2.7,2.3c-.059,0-.1-.01-.151-.017-1.182-.186-2.406-1.475-2.116-2.644.189-.759.336-1.532.449-2.211a3.112,3.112,0,0,1,2.505-2.566h0A1.959,1.959,0,0,1,421.209,269.716Z" transform="translate(-385.299 -257.397)" fill="#ffaf84"/>
            <path id="パス_2020" data-name="パス 2020" d="M425.925,282.042a57.559,57.559,0,0,0-5.6,19.424l-16.554-2.6s2.533-15.489,4.975-23.807A6.433,6.433,0,0,1,413,270.737a12.056,12.056,0,0,1,4.566-.284l3.06.481a11.731,11.731,0,0,1,3.167.91C428.093,273.936,427.858,278.054,425.925,282.042Z" transform="translate(-386.374 -257.153)" fill="url(#linear-gradient-29)"/>
            <path id="パス_2021" data-name="パス 2021" d="M418.843,309.261s1.977-3.25,1.659-10.117l-16.554-2.6a95.17,95.17,0,0,0-2.195,10.033Z" transform="translate(-386.553 -254.832)" fill="url(#linear-gradient-30)"/>
            <g id="グループ_3165" data-name="グループ 3165" transform="translate(23.929 44.313)">
              <g id="グループ_3164" data-name="グループ 3164">
                <path id="パス_2022" data-name="パス 2022" d="M412.05,329.862c-2.228-5.158,3.107-7.029,5.5-3.429,3.379,5.092,6.15,21.44,6.61,24.974.06.464.235,1.016.028,1.214a3.578,3.578,0,0,1-1.7.575c-.621.085-1.224.188-1.413-.561C419.793,347.579,414.209,334.858,412.05,329.862Z" transform="translate(-409.616 -296.66)" fill="url(#linear-gradient-31)"/>
                <path id="パス_2023" data-name="パス 2023" d="M409.8,308.485c.469-6.787,3.939-11.569,7.745-8.707,1.6,1.205,1.95,3.167,1.91,4.957s-1.616,20.209-1.683,23.572c-.149,7.58-5.695,4.66-6.008,2.5C410.976,325.366,409.544,312.183,409.8,308.485Z" transform="translate(-409.771 -298.933)" fill="url(#linear-gradient-32)"/>
              </g>
            </g>
            <path id="パス_2024" data-name="パス 2024" d="M400.173,353.6c.8-7.946,5.214-21.638,3.744-28.278-.934-4.22-5.866-4.7-6.022.394-.169,5.439.684,16.065-.651,26.5C397.113,353.236,400.066,354.524,400.173,353.6Z" transform="translate(-386.953 -252.573)" fill="url(#linear-gradient-33)"/>
            <path id="パス_2025" data-name="パス 2025" d="M403.453,329.113c-.973,1.95-6.946,3.444-5.187-3.93.779-3.273,4.344-21.452,4.754-23.195s1.121-4.271,2.057-4.454c4.674-.911,8.135,5.021,5.933,11.458C409.536,313.3,405.469,325.071,403.453,329.113Z" transform="translate(-386.891 -254.752)" fill="url(#linear-gradient-34)"/>
            <path id="パス_2026" data-name="パス 2026" d="M415.551,263.745c.237,1.008,0,1.927-.526,2.051s-1.149-.591-1.387-1.6,0-1.927.525-2.051S415.313,262.737,415.551,263.745Z" transform="translate(-385.508 -257.882)" fill="#ffaf84"/>
            <path id="パス_2027" data-name="パス 2027" d="M421.976,264.74c-.536.886-.594,1.832-.13,2.113s1.276-.21,1.812-1.1.594-1.832.13-2.113S422.513,263.853,421.976,264.74Z" transform="translate(-384.8 -257.755)" fill="#ffaf84"/>
            <path id="パス_2028" data-name="パス 2028" d="M393.849,280.972c.849,1.078,1.537,1.7,4.618,2.667a38.74,38.74,0,0,0,8.69,1.931c1.96.158,1.707-4.535-.83-5.311-2.145-.655-10.293-.324-11.6-.731C393.866,279.26,393.158,280.1,393.849,280.972Z" transform="translate(-387.279 -256.345)" fill="#1fa6b2"/>
            <path id="パス_2029" data-name="パス 2029" d="M395.507,279.624c-.793-.412-7.656-2.773-7.715-1.25-.066,1.685,2.7,2.728,3.628,2.994,1.8.516,3.286.87,4.024.091C395.968,280.908,396.261,280.016,395.507,279.624Z" transform="translate(-387.791 -256.487)" fill="#ffaf84"/>
            <path id="パス_2030" data-name="パス 2030" d="M394.711,279.255c-.313-.266-2.178-1.834-2.5-1.506-.486.5.684,1.589,1.456,2.312.418.392,1.244.64,1.52.262S395.211,279.681,394.711,279.255Z" transform="translate(-387.409 -256.502)" fill="#ffaf84"/>
          </g>
          <path id="パス_2031" data-name="パス 2031" d="M417.682,259.166c-1.739.709-2.239,1.491-2.5,3.461s.05,5.451,3.547,6.766,4.911-2.135,5.518-4.576.756-4.31-1-5.042C420.632,258.69,418.733,258.736,417.682,259.166Z" transform="translate(-385.369 -255.97)" fill="#583600"/>
          <path id="パス_2032" data-name="パス 2032" d="M424.376,260.418c.125-1.539-2.174-2.615-2.445-3.328,0,0-.137,1.046.294,1.354a19.533,19.533,0,0,1-3.89-2.087s.454,1.077,1.008,1.355a24.211,24.211,0,0,1-4.091-1.506,12.3,12.3,0,0,0,1.754,2.1,12,12,0,0,1-4.16-.684s1.239,3.48,3.632,3.9S424.149,263.232,424.376,260.418Z" transform="translate(-385.57 -256.207)" fill="#583600"/>
        </g>
      </g>
      <g id="グループ_3177" data-name="グループ 3177" transform="translate(0 7.579)">
        <path id="パス_2035" data-name="パス 2035" d="M298.067,353.7c0,.714,13.678,1.294,30.549,1.294s30.547-.58,30.547-1.294-13.676-1.3-30.547-1.3S298.067,352.987,298.067,353.7Z" transform="translate(-298.067 -235.728)" fill="#d8d8d8"/>
        <g id="グループ_3174" data-name="グループ 3174" transform="translate(3.056 0)">
          <g id="グループ_3173" data-name="グループ 3173">
            <path id="パス_2036" data-name="パス 2036" d="M313.562,252.228c.191-.9,2.054-7.858,3.3-6.91,1.376,1.048,1.24,3.974,1.075,4.951a3.707,3.707,0,0,1-2.88,3.107C314.278,253.431,313.38,253.08,313.562,252.228Z" transform="translate(-299.752 -245.23)" fill="#ffaf84"/>
            <path id="パス_2037" data-name="パス 2037" d="M316.558,251.566c.575,1.266.056,1.491-.267,5.04a35.79,35.79,0,0,1-1.6,8.9c-.663,1.878-4.563-.455-4.194-3.144.312-2.272,3.482-9.771,4.094-11.025A1.1,1.1,0,0,1,316.558,251.566Z" transform="translate(-300.024 -244.733)" fill="url(#linear-gradient-35)"/>
            <path id="パス_2038" data-name="パス 2038" d="M315.741,262.826c-.2,1.083-1.032,3.422-4.436,8.393a38.664,38.664,0,0,1-3.943,5.021c-1.36,1.5-3.385.987-3.857.036-.759-1.533-.752-4.124-.087-4.951,3.751-4.669,6.923-8.031,7.633-9.321C312.084,260.119,315.983,261.543,315.741,262.826Z" transform="translate(-300.693 -243.823)" fill="url(#linear-gradient-36)"/>
            <path id="パス_2039" data-name="パス 2039" d="M304.615,349.906a9.073,9.073,0,0,1,.213,1.56c.1.628.7.856,1.047,1.371.382.568.982,1.391-1.361,1.437-2.507.049-3.993-.031-3.567-1.4a6.987,6.987,0,0,0,.48-2.412,1.469,1.469,0,0,1,.284-1.177C301.994,349.021,304.245,348.54,304.615,349.906Z" transform="translate(-300.875 -236.031)" fill="#79186a"/>
            <path id="パス_2040" data-name="パス 2040" d="M327.681,324.295a5.845,5.845,0,0,0,2.521,1.66c1.327.5,4.1.625,2.59,1.192a9.523,9.523,0,0,1-4.219.259,20.415,20.415,0,0,0-2.86.12c-1.407.06-1.416-.169-1.3-1.707C324.569,323.7,326.988,323.139,327.681,324.295Z" transform="translate(-298.792 -238.272)" fill="#79186a"/>
            <path id="パス_2041" data-name="パス 2041" d="M307.334,261.8c.284,2.847.368,3.476,1.612,4.643a6.7,6.7,0,0,0,4.535,1.335c1.457,0,2.418-1.758,2.748-2.963a17.553,17.553,0,0,0,.284-6.707,4.6,4.6,0,0,0-4.168-3.5C310.333,254.608,306.638,254.841,307.334,261.8Z" transform="translate(-300.31 -244.398)" fill="#ffaf84"/>
            <path id="パス_2042" data-name="パス 2042" d="M308.674,265.968c-.077.988-.151,2.124-.183,3.16a2.716,2.716,0,0,0,2.371,2.758c.061.005.108.008.156.008,1.229,0,2.676-1.114,2.568-2.345-.071-.8-.1-1.607-.1-2.314a3.2,3.2,0,0,0-2.133-3h0A2.01,2.01,0,0,0,308.674,265.968Z" transform="translate(-300.199 -243.555)" fill="#ffaf84"/>
            <path id="パス_2043" data-name="パス 2043" d="M303.48,277.845a59.1,59.1,0,0,1,2.587,20.594h17.205s-.1-16.115-1.252-24.94a6.61,6.61,0,0,0-3.632-5.061,12.367,12.367,0,0,0-4.587-1.015h-3.179a12.044,12.044,0,0,0-3.357.418C302.573,269.278,302.155,273.491,303.48,277.845Z" transform="translate(-300.702 -243.262)" fill="url(#linear-gradient-37)"/>
            <path id="パス_2044" data-name="パス 2044" d="M305.924,306.439s-1.486-3.611-.071-10.526h17.205s-.012,4.934,0,10.526Z" transform="translate(-300.487 -240.736)" fill="#228bc5"/>
            <g id="グループ_3172" data-name="グループ 3172" transform="translate(0.397 55.856)">
              <g id="グループ_3171" data-name="グループ 3171">
                <path id="パス_2045" data-name="パス 2045" d="M309.674,326.676c1.379-5.6-4.343-6.589-6.149-2.534-2.555,5.73-2.352,24.052-2.215,27.708.017.479-.065,1.068.177,1.233a3.68,3.68,0,0,0,1.819.293c.641-.021,1.27-.018,1.335-.81C305.078,347.23,308.34,332.1,309.674,326.676Z" transform="translate(-301.239 -294.309)" fill="url(#linear-gradient-38)"/>
                <path id="パス_2046" data-name="パス 2046" d="M314.638,307.138c.605-6.958-2.152-12.362-6.469-10.065-1.816.967-2.481,2.9-2.725,4.723s-1.583,20.755-2.05,24.177c-1.057,7.712,5.034,5.633,5.694,3.5C310.755,324.073,314.309,310.931,314.638,307.138Z" transform="translate(-301.059 -296.537)" fill="url(#linear-gradient-39)"/>
              </g>
            </g>
            <path id="パス_2047" data-name="パス 2047" d="M324.528,326.733c2.93-7.66,5.2-22.254,9.605-27.668,2.8-3.44,7.544-1.6,5.342,3.139-2.354,5.068-8.034,14.422-11.621,24.609C327.5,327.814,324.2,327.633,324.528,326.733Z" transform="translate(-298.78 -240.614)" fill="url(#linear-gradient-40)"/>
            <path id="パス_2048" data-name="パス 2048" d="M338.94,303.955c2.156-.6,4.553-7.6-3.226-7.269-3.45.146-15.6.069-17.434.143s-4.522.3-4.889,1.2c-1.832,4.533,3.473,9.181,10.39,8.217C328.406,305.6,334.472,305.2,338.94,303.955Z" transform="translate(-299.797 -240.669)" fill="url(#linear-gradient-41)"/>
            <path id="パス_2049" data-name="パス 2049" d="M315.09,260.779c-.4.984-.31,1.954.206,2.164s1.26-.416,1.662-1.4.31-1.954-.206-2.164S315.492,259.8,315.09,260.779Z" transform="translate(-299.636 -243.979)" fill="#ffaf84"/>
            <path id="パス_2050" data-name="パス 2050" d="M308.432,260.779c.4.984.31,1.954-.206,2.164s-1.261-.416-1.662-1.4-.31-1.954.2-2.164S308.031,259.8,308.432,260.779Z" transform="translate(-300.392 -243.979)" fill="#ffaf84"/>
            <path id="パス_2051" data-name="パス 2051" d="M308.144,256.305c1.108,1.655,6.466,1.809,8.215,1.2s1.628-3.991-.874-4.223c-1.409,0-.389.334-1.53.8C313.376,254.314,306.96,254.537,308.144,256.305Z" transform="translate(-300.243 -244.516)"/>
            <path id="パス_2052" data-name="パス 2052" d="M339.449,266.246c.865-.3,7.786-2.316,7.62-.759-.183,1.721-2.755,3.12-3.677,3.485a3.708,3.708,0,0,1-4.149-.854C338.793,267.482,338.626,266.532,339.449,266.246Z" transform="translate(-297.506 -243.486)" fill="#ffaf84"/>
            <path id="パス_2053" data-name="パス 2053" d="M339.721,265.886c.3-.3,2.088-2.047,2.44-1.735.536.476-.577,1.68-1.311,2.481-.4.433-1.225.751-1.536.385S339.241,266.361,339.721,265.886Z" transform="translate(-297.479 -243.555)" fill="#ffaf84"/>
            <path id="パス_2054" data-name="パス 2054" d="M342,268.344c-.786,1.149-1.247.821-4.449,2.385a35.7,35.7,0,0,1-8.448,3.242c-1.949.406-1.974-4.138.517-5.216,2.105-.91,10.159-2.086,11.55-2.212A1.1,1.1,0,0,1,342,268.344Z" transform="translate(-298.498 -243.34)" fill="url(#linear-gradient-42)"/>
            <path id="パス_2055" data-name="パス 2055" d="M332.226,273.354c-1.007.445-3.4,1.093-9.428,1.113a28.51,28.51,0,0,1-5.248-.245,4.014,4.014,0,0,1-3.343-3.306c.047-1.752.943-3.06,2-2.982,5.974.438,12.569,1.24,14.033,1.091C332.38,268.806,333.42,272.825,332.226,273.354Z" transform="translate(-299.693 -243.217)" fill="url(#linear-gradient-43)"/>
          </g>
          <path id="パス_2056" data-name="パス 2056" d="M314.291,255.847c1.65,1,2.034,1.87,1.987,3.91s-.919,5.521-4.675,6.3-4.642-2.949-4.87-5.521-.079-4.493,1.82-4.954C311.373,254.895,313.292,255.244,314.291,255.847Z" transform="translate(-300.362 -244.345)"/>
        </g>
      </g>
    </g>
    <g id="グループ_4185" data-name="グループ 4185" transform="matrix(0.999, -0.052, 0.052, 0.999, 928.433, 6977.031)">
      <path id="パス_1939" data-name="パス 1939" d="M414.5,204.266c-1.436-2.2,2.933-4.963,7.806-3.214a10.324,10.324,0,0,1-1.732,3.929C419.466,206.373,416.509,207.348,414.5,204.266Z" transform="translate(-402.368 -153.443)" fill="url(#linear-gradient-44)"/>
      <path id="パス_1940" data-name="パス 1940" d="M411.606,203.318c-2.143-1.522.912-5.693,6.088-5.849a10.334,10.334,0,0,1-.172,4.291C417,203.46,414.607,205.449,411.606,203.318Z" transform="translate(-402.33 -153.408)" fill="url(#linear-gradient-45)"/>
      <path id="パス_1941" data-name="パス 1941" d="M409.795,202.867c-2.352-.362-1.573-4.976,2.551-7.2a9.365,9.365,0,0,1,1.6,3.542C414.217,200.792,413.087,203.374,409.795,202.867Z" transform="translate(-402.302 -153.388)" fill="url(#linear-gradient-46)"/>
      <path id="パス_1942" data-name="パス 1942" d="M409.107,201.922c-2.042.634-3.229-3.4-.775-6.82a8.394,8.394,0,0,1,2.687,2.229C411.862,198.505,411.966,201.035,409.107,201.922Z" transform="translate(-402.285 -153.381)" fill="url(#linear-gradient-47)"/>
      <path id="パス_1943" data-name="パス 1943" d="M409.3,190.062c-6.573-6.761,6.907-19.493,25.272-16.686,0,0,.044,8.391-3.394,15.027C428.247,194.064,418.509,199.529,409.3,190.062Z" transform="translate(-402.292 -153.126)" fill="url(#linear-gradient-48)"/>
      <path id="パス_1944" data-name="パス 1944" d="M432.025,174.628a15.934,15.934,0,0,0-5.507,2.24,12.835,12.835,0,0,0-1.245.791c-.4.287-.828.523-1.2.848l-1.132.944-.562.471-.516.529a40.027,40.027,0,0,0-3.889,4.412l-1.735,2.39-1.534,2.541c-.254.423-.543.826-.772,1.267l-.683,1.326-1.379,2.647-2.44,5.489c-.719,1.876-1.514,3.734-2.18,5.644-.707,1.9-1.333,3.827-2.118,5.73l-.143-.033,1.519-5.911c.543-1.96,1.24-3.876,1.851-5.816.673-1.92,1.509-3.781,2.257-5.675l1.364-2.734.685-1.367c.229-.455.52-.875.778-1.315l1.613-2.6L416.89,184a33.841,33.841,0,0,1,4.223-4.416l.567-.512.616-.456,1.234-.906c.405-.31.87-.534,1.3-.8a12.1,12.1,0,0,1,1.342-.733,14.922,14.922,0,0,1,5.854-1.691Z" transform="translate(-402.262 -153.143)" fill="url(#linear-gradient-49)"/>
      <path id="パス_1945" data-name="パス 1945" d="M417.824,184.553c7.168.372,7.694-13.734-3.125-22.841,0,0-4.827,4.185-6.9,9.481C406.029,175.714,407.785,184.032,417.824,184.553Z" transform="translate(-402.287 -152.996)" fill="url(#linear-gradient-50)"/>
      <path id="パス_1946" data-name="パス 1946" d="M415.346,163.749a39.873,39.873,0,0,1,1.144,6.219c.095,1.052.181,2.1.213,3.16.059,1.056.08,2.111.073,3.169a78.582,78.582,0,0,1-1.222,12.616c-.217,1.034-.47,2.061-.7,3.092l-.363,1.543-.431,1.525-.87,3.045c-.328,1-.694,1.995-1.063,2.983l-.548,1.484-.618,1.456-1.251,2.9c-.424.962-.963,1.874-1.438,2.811s-.987,1.855-1.5,2.769l-.1-.048c.828-1.919,1.721-3.812,2.5-5.752l1.112-2.932.55-1.469.478-1.492.959-2.985.812-3.028.4-1.514.334-1.531c.214-1.022.449-2.04.647-3.065a87.586,87.586,0,0,0,1.448-12.441,59.409,59.409,0,0,0-.669-12.492Z" transform="translate(-402.281 -153.02)" fill="url(#linear-gradient-51)"/>
      <path id="パス_1947" data-name="パス 1947" d="M424.486,179.021c-9.9-8.734,7.559-27.943,33.488-25.988,0,0,.959,11.706-3.131,21.335C451.355,182.584,438.346,191.253,424.486,179.021Z" transform="translate(-402.454 -152.895)" fill="url(#linear-gradient-52)"/>
      <path id="パス_1948" data-name="パス 1948" d="M454.456,155.028a71.186,71.186,0,0,0-7.8,5.382c-1.238.974-2.5,1.907-3.674,2.954l-1.79,1.527-1.714,1.615-1.708,1.612-1.653,1.67-1.654,1.665c-.553.554-1.048,1.162-1.576,1.741-1.019,1.186-2.153,2.27-3.112,3.508l-2.96,3.64c-.957,1.237-1.866,2.511-2.8,3.764-.46.634-.945,1.249-1.382,1.9l-1.285,1.966c-.86,1.309-1.76,2.6-2.591,3.926-.774,1.364-1.585,2.707-2.4,4.052l-1.224,2.02-1.09,2.095-2.187,4.2c-1.479,2.8-2.673,5.728-4.16,8.565l-.165-.058,1.713-4.449.855-2.225c.283-.742.56-1.488.914-2.2l2-4.328,1-2.163,1.141-2.094,2.283-4.188c.81-1.367,1.688-2.695,2.529-4.043l1.274-2.016c.439-.663.925-1.294,1.386-1.942.939-1.283,1.851-2.587,2.811-3.854a101.7,101.7,0,0,1,13.15-13.79,71.732,71.732,0,0,1,15.8-10.608Z" transform="translate(-402.291 -152.917)" fill="url(#linear-gradient-53)"/>
      <path id="パス_1949" data-name="パス 1949" d="M426.32,192.761c-4.721-8.273,11.678-17.319,28.929-9.938,0,0-2.077,8.218-7.114,13.839C443.837,201.458,432.932,204.344,426.32,192.761Z" transform="translate(-402.499 -153.208)" fill="url(#linear-gradient-54)"/>
      <path id="パス_1950" data-name="パス 1950" d="M452.291,183.425a39.316,39.316,0,0,0-6.6,1.72l-1.609.541-1.581.623c-1.06.39-2.078.89-3.1,1.366a69.284,69.284,0,0,0-11.61,6.9l-2.72,2.016c-.924.651-1.738,1.443-2.614,2.159-.846.748-1.757,1.428-2.541,2.248-.8.8-1.634,1.57-2.473,2.336-.859.747-1.615,1.6-2.4,2.419l-2.355,2.478c-1.552,1.674-2.987,3.453-4.578,5.131l-.1-.073c1.391-1.824,2.746-3.677,4.166-5.479l2.252-2.6c.755-.865,1.48-1.757,2.312-2.549,1.619-1.627,3.2-3.3,4.964-4.769.877-.74,1.69-1.558,2.619-2.236l2.733-2.1a64.173,64.173,0,0,1,11.962-6.784,42.62,42.62,0,0,1,13.276-3.471Z" transform="translate(-402.297 -153.245)" fill="url(#linear-gradient-55)"/>
      <path id="パス_1951" data-name="パス 1951" d="M438.109,172.493a11.625,11.625,0,0,1,3.348-.222,18.358,18.358,0,0,1,3.262.5,17.257,17.257,0,0,1,3.12,1.133,9.75,9.75,0,0,1,2.773,1.935l-.051.1a33.3,33.3,0,0,0-6.125-2.043,62.865,62.865,0,0,0-6.341-1.292Z" transform="translate(-402.644 -153.118)" fill="url(#linear-gradient-56)"/>
      <path id="パス_1952" data-name="パス 1952" d="M442.925,166.807a8.608,8.608,0,0,1,2.746-.691,13.494,13.494,0,0,1,2.761.007,12.739,12.739,0,0,1,2.71.62,7.371,7.371,0,0,1,2.485,1.41l-.037.111a27.635,27.635,0,0,0-5.286-.983,52.025,52.025,0,0,0-5.378-.357Z" transform="translate(-402.699 -153.046)" fill="url(#linear-gradient-57)"/>
      <path id="パス_1953" data-name="パス 1953" d="M432.444,168.154a14.717,14.717,0,0,1,.011-3.509c.061-.521.107-1.027.133-1.528a8.054,8.054,0,0,0-.093-1.705l.077-.074a4.334,4.334,0,0,1,.946,3.4,11.715,11.715,0,0,1-.977,3.457Z" transform="translate(-402.577 -152.992)" fill="url(#linear-gradient-58)"/>
      <path id="パス_1954" data-name="パス 1954" d="M439.495,162.8a10.517,10.517,0,0,1,.647-2.637c.152-.383.277-.757.4-1.127a4.8,4.8,0,0,0,.253-1.282l.07-.041a3.312,3.312,0,0,1,.04,2.718,9.958,9.958,0,0,1-1.345,2.417Z" transform="translate(-402.66 -152.95)" fill="url(#linear-gradient-59)"/>
      <g id="グループ_3149" data-name="グループ 3149" transform="translate(0 43.774)">
        <path id="パス_1955" data-name="パス 1955" d="M412.736,217.419l-9.882-4.479a1.065,1.065,0,0,1-.574-1.292l3.83-12.071a1.064,1.064,0,0,1,1.454-.646l12.605,5.714a1.064,1.064,0,0,1,.471,1.52L414.087,217A1.064,1.064,0,0,1,412.736,217.419Z" transform="translate(-402.23 -197.199)" fill="url(#linear-gradient-60)"/>
        <path id="パス_1956" data-name="パス 1956" d="M420.448,207.476l-15.16-6.873a.7.7,0,0,1-.387-.829l.585-2.082a.7.7,0,0,1,.966-.45l15.755,7.143a.7.7,0,0,1,.3,1.023l-1.18,1.812A.7.7,0,0,1,420.448,207.476Z" transform="translate(-402.261 -197.18)" fill="url(#linear-gradient-61)"/>
      </g>
    </g>
  </g>
</svg>
