<svg xmlns="http://www.w3.org/2000/svg" width="17.602" height="12.3" viewBox="0 0 17.602 12.3">
  <g id="グループ_1721" data-name="グループ 1721" transform="translate(-1326.224 -32.85)">
    <g id="グループ_1656" data-name="グループ 1656" transform="translate(1278.374 -339)">
      <g id="_071-menu" data-name="071-menu" transform="translate(48 372)">
        <g id="グループ_1616" data-name="グループ 1616" transform="translate(0 5.301)">
          <g id="グループ_1615" data-name="グループ 1615" transform="translate(0 0)">
            <path id="パス_1166" data-name="パス 1166" d="M16.6,235.318H.7a.7.7,0,1,0,0,1.4H16.6a.7.7,0,1,0,0-1.4Z" transform="translate(0 -235.318)" stroke="#000" stroke-width="0.3"/>
          </g>
        </g>
        <g id="グループ_1618" data-name="グループ 1618" transform="translate(0 0)">
          <g id="グループ_1617" data-name="グループ 1617">
            <path id="パス_1167" data-name="パス 1167" d="M16.6,78.439H.7a.7.7,0,0,0,0,1.4H16.6a.7.7,0,0,0,0-1.4Z" transform="translate(0 -78.439)" stroke="#000" stroke-width="0.3"/>
          </g>
        </g>
        <g id="グループ_1620" data-name="グループ 1620" transform="translate(0 10.602)">
          <g id="グループ_1619" data-name="グループ 1619">
            <path id="パス_1168" data-name="パス 1168" d="M16.6,392.2H.7a.7.7,0,1,0,0,1.4H16.6a.7.7,0,1,0,0-1.4Z" transform="translate(0 -392.197)" stroke="#000" stroke-width="0.3"/>
          </g>
        </g>
      </g>
    </g>
  </g>
</svg>
