<svg xmlns="http://www.w3.org/2000/svg" width="100" height="104.088" viewBox="0 0 100 104.088">
  <g id="グループ_4163" data-name="グループ 4163" transform="translate(-207 -4965)">
    <text id="Step" transform="translate(207 4965)" fill="#d82b1b" font-size="28" font-family="Futura-MediumItalic, Futura" font-weight="500" font-style="italic"><tspan x="21.248" y="29">Step</tspan></text>
    <g id="グループ_4162" data-name="グループ 4162" transform="translate(-286 2980)">
      <path id="パス_2194" data-name="パス 2194" d="M40,0A40,40,0,1,1,0,40,40,40,0,0,1,40,0Z" transform="translate(501 2009.088)" fill="#d82b1b" opacity="0.2"/>
      <path id="Logo" d="M28.41-54.437a31.629,31.629,0,0,1-1.227,8.6,21.128,21.128,0,0,1-3.164,6.922,9.976,9.976,0,0,1-8.287,4.291,9.04,9.04,0,0,1-7.727-3.925q-2.82-3.925-2.82-10.7,0-8.3,3.745-13.973,3.788-5.671,9.255-5.671a8.68,8.68,0,0,1,7.447,3.925Q28.41-61.036,28.41-54.437Zm-4.8-.237a14.657,14.657,0,0,0-1.442-7.159,4.408,4.408,0,0,0-3.982-2.609q-3.465,0-5.855,4.571A24.22,24.22,0,0,0,9.964-48.637a14.285,14.285,0,0,0,1.464,7.051A4.542,4.542,0,0,0,15.5-39.063q3.229,0,5.4-3.666a18.531,18.531,0,0,0,1.937-5.391A29.352,29.352,0,0,0,23.61-54.674Zm8.416,11.3h4.563a4.927,4.927,0,0,0,1.743,3.2,5.856,5.856,0,0,0,3.745,1.111A6.093,6.093,0,0,0,46.491-40.7a5.663,5.663,0,0,0,1.7-4.27q0-5.154-6.651-5.154l.538-4.377h1.205a5.15,5.15,0,0,0,3.928-1.412A5.733,5.733,0,0,0,48.6-60.065a4.354,4.354,0,0,0-1.162-3.2,4.366,4.366,0,0,0-3.25-1.175q-4.5,0-4.929,5.412H34.911q.646-9.876,9.815-9.876A8.649,8.649,0,0,1,51.032-66.6a8.27,8.27,0,0,1,2.346,6.21A8.647,8.647,0,0,1,52.1-55.494,9.006,9.006,0,0,1,48-52.367q4.972,1.984,4.972,7.612A9.532,9.532,0,0,1,49.956-37.4a11.185,11.185,0,0,1-7.9,2.782,12.428,12.428,0,0,1-3.928-.582A8.807,8.807,0,0,1,35.093-36.9a8.411,8.411,0,0,1-2.066-2.739A11.153,11.153,0,0,1,32.026-43.375Z" transform="translate(511.672 2100.28)" fill="#d82b1b"/>
    </g>
  </g>
</svg>
