<svg xmlns="http://www.w3.org/2000/svg" width="100" height="104.088" viewBox="0 0 100 104.088">
  <g id="グループ_4163" data-name="グループ 4163" transform="translate(-207 -4965)">
    <text id="Step" transform="translate(207 4965)" fill="#d82b1b" font-size="28" font-family="Futura-MediumItalic, Futura" font-weight="500" font-style="italic"><tspan x="21.248" y="29">Step</tspan></text>
    <g id="グループ_4162" data-name="グループ 4162" transform="translate(-286 2980)">
      <path id="パス_2194" data-name="パス 2194" d="M40,0A40,40,0,1,1,0,40,40,40,0,0,1,40,0Z" transform="translate(501 2009.088)" fill="#d82b1b" opacity="0.2"/>
      <path id="Logo" d="M28.41-54.437a31.629,31.629,0,0,1-1.227,8.6,21.128,21.128,0,0,1-3.164,6.922,9.976,9.976,0,0,1-8.287,4.291,9.04,9.04,0,0,1-7.727-3.925q-2.82-3.925-2.82-10.7,0-8.3,3.745-13.973,3.788-5.671,9.255-5.671a8.68,8.68,0,0,1,7.447,3.925Q28.41-61.036,28.41-54.437Zm-4.8-.237a14.657,14.657,0,0,0-1.442-7.159,4.408,4.408,0,0,0-3.982-2.609q-3.465,0-5.855,4.571A24.22,24.22,0,0,0,9.964-48.637a14.285,14.285,0,0,0,1.464,7.051A4.542,4.542,0,0,0,15.5-39.063q3.229,0,5.4-3.666a18.531,18.531,0,0,0,1.937-5.391A29.352,29.352,0,0,0,23.61-54.674Zm29.1,14.987-.581,4.593h-21.5L43.886-49.736q2.066-2.264,3.293-3.73a22.857,22.857,0,0,0,1.7-2.221,6.372,6.372,0,0,0,.9-3.45,6.128,6.128,0,0,0-.377-2.21,4.656,4.656,0,0,0-1.076-1.671,4.657,4.657,0,0,0-1.711-1.057,6.6,6.6,0,0,0-2.26-.367,6.917,6.917,0,0,0-2.454.4A4.307,4.307,0,0,0,40.13-62.8a6.278,6.278,0,0,0-1.152,2.146,13.629,13.629,0,0,0-.581,3.116H33.727q.366-4.916,2.045-7.31,2.82-4.054,8.717-4.054a10.014,10.014,0,0,1,7.318,2.674,9.309,9.309,0,0,1,2.755,7.03,10.287,10.287,0,0,1-1.141,4.96,17.111,17.111,0,0,1-1.8,2.588q-1.238,1.531-3.132,3.623l-7.684,8.345Z" transform="translate(510.672 2100.361)" fill="#d82b1b"/>
    </g>
  </g>
</svg>
