<svg xmlns="http://www.w3.org/2000/svg" width="100" height="104.088" viewBox="0 0 100 104.088">
  <g id="グループ_4163" data-name="グループ 4163" transform="translate(-207 -4965)">
    <text id="Step" transform="translate(207 4965)" fill="#d82b1b" font-size="28" font-family="Futura-MediumItalic, Futura" font-weight="500" font-style="italic"><tspan x="21.248" y="29">Step</tspan></text>
    <g id="グループ_4162" data-name="グループ 4162" transform="translate(-286 2980)">
      <path id="パス_2194" data-name="パス 2194" d="M40,0A40,40,0,1,1,0,40,40,40,0,0,1,40,0Z" transform="translate(501 2009.088)" fill="#d82b1b" opacity="0.2"/>
      <path id="Logo" d="M27.759-54.406A32.52,32.52,0,0,1,26.566-45.8a21.434,21.434,0,0,1-3.075,6.926,9.614,9.614,0,0,1-8.054,4.294A8.711,8.711,0,0,1,7.926-38.5q-2.741-3.927-2.741-10.7,0-8.307,3.64-13.982,3.682-5.675,9-5.675a8.371,8.371,0,0,1,7.238,3.927Q27.759-61.008,27.759-54.406Zm-4.665-.237a15.032,15.032,0,0,0-1.4-7.164,4.279,4.279,0,0,0-3.87-2.611q-3.368,0-5.69,4.574A24.838,24.838,0,0,0,9.83-48.6a14.647,14.647,0,0,0,1.423,7.056,4.4,4.4,0,0,0,3.954,2.524q3.138,0,5.251-3.668a18.9,18.9,0,0,0,1.883-5.394A30.2,30.2,0,0,0,23.093-54.643ZM44.369-68.366,40.394-35.051H35.6L39.055-63.77H32.7l2.176-4.6Z" transform="translate(514.672 2101.329)" fill="#d82b1b"/>
    </g>
  </g>
</svg>
